<svg id="clouds2" xmlns="http://www.w3.org/2000/svg" xmlns:xlink="http://www.w3.org/1999/xlink" width="3057.911" height="545.974" viewBox="0 0 3057.911 545.974">
  <defs>
    <clipPath id="clip-path">
      <rect id="Rectangle_58" data-name="Rectangle 58" width="3057.911" height="545.974" fill="none"/>
    </clipPath>
  </defs>
  <g id="Group_86" data-name="Group 86" clip-path="url(#clip-path)">
    <path id="Path_71" data-name="Path 71" d="M2813.661,269.04c2.271,3.934,147.163-90.219,149.438-86.278,1.937,3.353-115.14,68.67-113.409,71.669,1.569,2.718,115.913-70.962,117.662-67.932,1.442,2.5-116.884,69.714-115.4,72.277,1.677,2.9,114.16-69.84,115.862-66.893,1.468,2.544-113.622,67.606-112.051,70.326,1.727,2.992,112.6-69.122,114.38-66.037,1.948,3.374-112.841,67.413-111.153,70.335,1.509,2.615,106.778-65.1,108.273-62.511,1.572,2.722-99.979,60.12-98.505,62.674,1.6,2.779,100.839-61.458,102.241-59.029,1.491,2.582-95.219,57.722-93.764,60.243,1.531,2.651,92.174-56.135,93.438-53.946,1.482,2.567-91.327,54.61-89.846,57.175,1.387,2.4,79.869-49.3,81.25-46.909.992,1.719-70.767,44.511-69.763,46.249,1.1,1.907,69.341-42.208,70.282-40.578,1.079,1.868-63.85,40.543-62.964,42.078.929,1.61,62.261-37.421,62.9-36.315.694,1.2-39.031,27.393-38.523,28.274.411.711,26.984-16.666,27.455-15.851" fill="none" stroke="#f7f7f7" stroke-linecap="round" stroke-linejoin="round" stroke-width="3"/>
    <path id="Path_72" data-name="Path 72" d="M2569.443,119.5c.408.707,23.783-14.682,24.195-13.969.588,1.018-43.539,29.434-42.824,30.672,1.079,1.869,77.669-46.772,78.5-45.325,1.023,1.772-86.738,52.834-85.52,54.943,1.492,2.583,96.926-58.87,98.186-56.688" fill="none" stroke="#f7f7f7" stroke-linecap="round" stroke-linejoin="round" stroke-width="3"/>
    <path id="Path_73" data-name="Path 73" d="M2027.479,319.274c6.514,11.283,383.846-236.877,390.455-225.429,5.749,9.958-390.414,216.441-384.063,227.44,6.519,11.291,380.4-232.376,385.924-222.813,6.345,10.989-381.19,212.376-375.478,222.269,6.391,11.07,376.086-232.534,382.754-220.984,5.986,10.367-380.6,215.075-375.836,223.321,6.643,11.505,381.383-233.694,387.23-223.567,6.23,10.79-387.093,215.224-381.04,225.71,5.146,8.912,380.9-234.353,387.149-223.521,5.573,9.654-383.569,213.992-377.838,223.919,6.138,10.631,379.091-229.574,383.726-221.545,4.944,8.563-380.142,210.332-373.7,221.5,5.305,9.188,374.018-227.044,378.827-218.715,4.744,8.217-379.8,212.54-374.316,222.035,6.433,11.143,372.2-228.154,377.939-218.2,6.194,10.727-370.537,207.155-365.232,216.343,6.282,10.88,367.109-222.2,371.546-214.512,4.6,7.967-372.206,206.229-365.961,217.045,6.295,10.9,367.652-223.685,372.6-215.12,4.478,7.756-363.279,203.116-357.752,212.69,5.692,9.858,364.486-222.3,369.625-213.4,4.333,7.5-369.116,209.22-364.684,216.9,5.069,8.779,364.942-223.066,370.3-213.791s-367.108,203.427-360.935,214.117c5,8.67,359.268-221.559,365.389-210.957,4.545,7.873-360.267,204.146-355.867,211.767,4.935,8.548,352.507-216.047,357.932-206.652,4.814,8.34-351.544,196.621-346.1,206.048,4.3,7.444,352.8-217.181,358.645-207.064,5.015,8.687-349.284,196.952-344.711,204.872,4.673,8.1,337.207-205.844,342.039-197.476,4.852,8.4-338.67,190.035-333.932,198.242,4.486,7.77,337.379-207.456,342.865-197.953,4,6.928-339.225,189.173-333.968,198.279,5.722,9.91,331.151-200.795,335.31-193.591,5.513,9.548-336.082,188.094-331.188,196.572,4.807,8.325,331.376-203.322,336.573-194.321,4.655,8.063-327.713,184.025-322.952,192.272,4.1,7.1,328.867-199.328,332.962-192.236,4.01,6.946-329.885,184.039-324.423,193.5,4.241,7.347,328.194-198.518,332.107-191.742,5.6,9.7-330.81,184.591-325.76,193.338,4.662,8.076,321.407-195.39,325.662-188.021,3.747,6.491-317.018,177.461-311.974,186.2,5.8,10.039,421.1-256.423,426.859-246.448,5.224,9.047-421.089,237.316-416.162,245.85,5.573,9.651,423.087-259.147,429.529-247.989,5.808,10.06-428.047,240.834-422.982,249.608,7.191,12.454,426.261-260.911,432.673-249.8,6.069,10.512-420.858,235.533-414.982,245.71,5.75,9.959,420.971-256.741,426.9-246.471,7.215,12.5-426.891,239.084-421.414,248.572,6.339,10.979,426.6-261.915,433.366-250.2,5.347,9.261-430.746,239.573-424.51,250.375,6.284,10.885,425.365-258.869,431.117-248.905,5.657,9.8-423.507,234.125-416.479,246.3,5.973,10.344,416.3-255.706,422.95-244.19,4.9,8.482-422.337,237.181-417.026,246.38,6.229,10.79,420.2-257.144,426.5-246.239,5.157,8.933-415.967,234.543-411.116,242.944,5.882,10.189,416.29-252.164,421.408-243.3,5.053,8.752-420.948,234.679-415.029,244.933,5.822,10.083,414.942-251.924,420.292-242.656,5.8,10.048-412.391,231.226-407.108,240.376,5.69,9.856,412.549-251.148,418.162-241.426,6.58,11.4-419.188,234.468-413.271,244.717,7.032,12.18,411.065-249.86,416.491-240.461,5.381,9.321-414.976,230.937-408.573,242.027C2351.533,343.183,2763.352,77.579,2768.792,87c6.7,11.609-424.085,237.388-418.506,247.051,6.9,11.956,418.611-257.073,425.274-245.532,5.938,10.284-420.324,233.91-413.869,245.089,7.225,12.515,414.332-252.455,420.066-242.525,5.778,10.008-422.039,234.45-415.746,245.349,6.527,11.3,414.7-254.011,421.017-243.074,5.254,9.1-411.879,231.877-406.738,240.782,5.553,9.619,410.653-248.474,415.583-239.937,6.941,12.022-417.783,234.421-412.231,244.038,6.936,12.013,409.194-251.576,415.831-240.081,5.637,9.765-414.628,232.5-409.1,242.081,6.014,10.417,412.989-250.914,418.391-241.558,5.5,9.521-415.761,234.436-410.587,243.4,6.131,10.619,408.01-248.817,413.748-238.878,6.286,10.887-412.426,229.2-406.038,240.268C2411.331,352.9,2813.86,96.3,2818.9,105.019c6.137,10.629-405.513,225.95-399.582,236.223,6.146,10.646,395.743-244.45,402.658-232.475,5.767,9.99-402.447,222.9-395.79,234.43,6.762,11.712,398.931-245.47,405.489-234.11,5.186,8.981-407.256,226.1-401.054,236.837,5.006,8.67,396.421-243.565,402.782-232.546,5.028,8.707-397.585,222.5-392.267,231.707,4.667,8.083,390.245-238.651,396.023-228.644,5.6,9.709-391.678,219.593-386.565,228.449,5.865,10.159,387.726-238.138,393.911-227.425,6.452,11.176-396.543,219.193-389.8,230.876,5.979,10.356,388.344-235.126,393.071-226.939,5.472,9.479-393.239,218.135-386.916,229.087,6.343,10.987,387.187-235.592,392.4-226.555,5.294,9.169-381.477,215.47-376.763,223.634,4.589,7.949,373.744-228.961,379.451-219.076,4.582,7.937-377.616,210.172-371.7,220.422,5.59,9.682,367.549-224.385,372.824-215.25,6.029,10.443-372.495,210.858-367.947,218.736,5.02,8.694,370.615-225.937,375.795-216.965,4.291,7.431-365.867,204.127-360.1,214.116,5.571,9.649,354.7-218.981,360.847-208.335,5.4,9.349-364.636,201.845-358.427,212.6,4.967,8.6,362.387-220.665,367.341-212.084,5.682,9.842-362.224,203.2-357.047,212.166,5.345,9.259,364.547-221.826,369.463-213.309,5.377,9.312-364.24,205.738-359.543,213.871,4.39,7.605,359.571-217.6,363.9-210.1,4.443,7.7-356,201.035-351.356,209.072,5.334,9.239,362.067-223.473,368.317-212.648,4.147,7.182-358.644,200.635-353.3,209.9,4.633,8.024,353.88-216.3,359.072-207.31,4.9,8.491-358.747,203.109-354.532,210.411,5.883,10.188,356.045-218.329,361.573-208.754,4.34,7.517-351.832,199.011-347.35,206.774,5.919,10.251,349.855-211.823,354.113-204.448,5.743,9.948-350.583,196.353-345.426,205.285,4.732,8.2,340.371-210.37,346.371-199.977,5.59,9.681-339.345,191.73-335,199.249,5.48,9.49,335.971-206.179,341.256-197.025,5.478,9.489-339.288,191.724-335.141,198.905,4.191,7.26,336.129-206.611,341.561-197.2,4.614,7.992-336.306,190.39-332.211,197.482,5.607,9.711,334.293-204.208,339.145-195.8,4.567,7.91-330.5,185.292-325.536,193.885,3.929,6.806,319.152-195.812,324.153-187.15,4.267,7.391-313.959,177.9-309.765,185.169,3.654,6.328,309.879-188.284,313.938-181.252,4.254,7.369-311.03,175.6-306.773,182.973,4.785,8.289,303.162-183.492,306.826-177.146,3.445,5.967-296.266,165.339-291.223,174.073,4.665,8.08,297.591-181.985,302-174.357,3.52,6.1-291.88,164.351-287.481,171.972,4.025,6.971,283.023-171.217,286.406-165.357,3.872,6.707-279.91,157.706-275.873,164.7,2.05,3.551,124.114-75.857,125.933-72.708,1.728,2.994-115.173,67.829-113.348,70.991,1.4,2.43,110.6-67.921,112.362-64.873,1.731,3-102.286,61.662-100.841,64.167,1.416,2.451,104.8-64.352,106.467-61.468,1.405,2.434-85.687,52.524-84.371,54.8,1.394,2.416,75.627-46.583,76.892-44.393.791,1.37-57.772,37.105-56.868,38.67.848,1.47,56.857-35.125,57.852-33.4.553.957-34.036,24.571-33.576,25.369.4.687,21.687-13.48,22.1-12.76" fill="none" stroke="#f7f7f7" stroke-linecap="round" stroke-linejoin="round" stroke-width="3"/>
    <path id="Path_74" data-name="Path 74" d="M1403.823,287.407c4.1,7.1,346.133-209.59,350.355-202.278,5.691,9.857-340.837,188.844-335.037,198.89,4.565,7.906,349.483-215.7,355.515-205.256,5.7,9.872-355.519,197.33-349.745,207.33,4.277,7.41,367.671-225.438,373.371-215.566,5.243,9.081-366.437,205.158-361.021,214.54,5.674,9.828,371.4-224.635,375.82-216.98,5.841,10.117-372.7,207.372-366.69,217.78,4.919,8.519,373.49-230.871,380.088-219.444,5.281,9.147-374.621,209.483-368.931,219.338,6.163,10.674,380.292-234.589,386.8-223.318,5.609,9.716-379.314,213.771-374.644,221.859,4.865,8.426,384.821-235.561,390.617-225.522,5.2,9-382.12,211.708-375.813,222.632,5.575,9.656,378.565-231.6,384.211-221.824,5.893,10.207-382.6,213.226-377.018,222.9,6.788,11.757,386.853-235.977,392.321-226.506,5.357,9.278-402.416,226.777-397.26,235.708,6.9,11.947,408.446-249.117,414.2-239.142,6.7,11.606-421.407,236-415.561,246.122,5.462,9.461,415-251.794,420.277-242.647,5.616,9.728-424.636,234.456-417.73,246.418,7.461,12.923,432.107-261.3,437.227-252.434,7.489,12.97-445.691,250.161-440.308,259.484,6.029,10.442,439.277-267.3,445.2-257.037C1937.7,65.662,1480.3,304.944,1485.8,314.472c5.741,9.945,446.323-274.737,453.706-261.947,6.564,11.368-455.223,252.783-448.176,264.988,6.989,12.106,454.546-279.337,461.866-266.658,6.469,11.2-464.485,258.545-458.011,269.758,7.525,13.035,466.04-287.456,474-273.665,7.257,12.569-479.3,265.178-471.658,278.413,7.508,13,475.717-288.854,481.865-278.206,6.49,11.241-486.617,270.127-479.234,282.915,8.034,13.915,484.47-298.928,492.792-284.514,6.667,11.547-496.441,274.7-488.84,287.865C1512.177,347.382,1989.06,34.9,1997.089,48.8c5.852,10.137-503.856,281.145-497.113,292.825,7.074,12.253,500.272-306.013,507.711-293.128,8.767,15.184-511.836,283.387-504.28,296.474,7.014,12.148,510.225-314.334,518.78-299.518,6.35,11-516.143,286.129-508.425,299.495,7.654,13.257,507.12-308.076,513.741-296.608,8.684,15.041-517.528,285.816-509.229,300.19,7.24,12.539,512.067-314.52,520.242-300.361,7.693,13.325-523.42,290.342-515.73,303.662,9.145,15.84,522.228-317.848,529.3-305.593,8.638,14.961-539.257,299.712-531.645,312.9,6.957,12.049,531.813-322.056,538.314-310.8,6.457,11.185-535.857,299.993-529.493,311.016,8.047,13.938,532.383-327.072,540.913-312.3,6.848,11.86-541.875,302.156-534.586,314.78,8.152,14.119,535.143-328.24,543.489-313.783,6.495,11.249-549.389,302.831-540.575,318.1,7.723,13.375,542.388-332.758,550.879-318.05,8.347,14.456-557.586,307.587-548.694,322.987,6.984,12.1,547.694-337.458,556.894-321.523,7.07,12.245-561.812,310.059-553.032,325.266,8.8,15.247,556.481-339.93,564.555-325.946,8.361,14.482-565.065,313.911-557.071,327.756,7.516,13.019,562.057-344.248,570.606-329.44,8.892,15.4-573.522,315.344-564.222,331.452,9.6,16.633,564.076-344.535,572.246-330.386,8.8,15.24-577.64,318.841-568.671,334.375,9.248,16.018,568.733-350.707,578.41-333.946,9.761,16.906-576.947,321.694-569.381,334.8,8.445,14.628,570.742-346.158,577.947-333.678,9.032,15.642-583.454,324.6-575.838,337.795,9.321,16.145,574.4-349.321,582.06-336.053,7.285,12.615-579.062,325.116-572.353,336.737,7.941,13.753,577.663-353.449,586.3-338.5,8.664,15.006-585.256,325.907-577.659,339.065,8.477,14.684,571.29-352.307,581.021-335.453,8.127,14.076-585.033,326.22-577.542,339.194,10.013,17.344,583.148-353.864,590.588-340.977,7.792,13.5-590.662,330.438-583.826,342.278,8.227,14.25,581.246-354.235,589.324-340.246,8.8,15.239-596.189,332.986-588.792,345.8,8.5,14.715,587.778-355.77,594.886-343.458,9.143,15.836-592.545,332.583-585.7,344.438,7.108,12.311,586.352-357.428,594.535-343.254C2216.022,74.6,1608.9,388.977,1617.219,403.4c8.469,14.668,590.654-362.779,600.078-346.455,8.978,15.55-594.6,331.053-586.921,344.359,10.156,17.59,586.813-358.807,595.478-343.8,7.611,13.181-597.962,329.129-588.423,345.65,8.494,14.713,589.347-357.014,596.6-344.448,9.025,15.631-603.246,331.059-593.124,348.59,9.454,16.376,593.69-360.631,601.426-347.233,8.767,15.185-603.791,338.662-596.84,350.7,8.665,15.008,595.58-362.474,603.641-348.512,7.459,12.92-597.239,332.037-589.351,345.7,9.522,16.494,594.207-360.886,601.924-347.52,9,15.588-607.028,339.87-599.774,352.434C1669.213,425.47,2261.743,43.8,2271.6,60.873c6.961,12.058-605.538,335.357-596.859,350.39,7.837,13.575,594.43-363.475,603.212-348.265,9.649,16.713-608.3,335.434-598.879,351.75,10.022,17.359,597.093-365.53,606.1-349.931,9.872,17.1-603.329,333.052-594.068,349.093,7.826,13.556,587.814-362.551,597.849-345.169,7.719,13.37-601.956,333.779-593.379,348.635,8.98,15.554,591.405-363.619,601-346.99,7.331,12.7-600.671,333.832-592.314,348.305C1714.144,435.8,2297,54.331,2306.592,70.937c7.682,13.3-598.487,331.688-589.858,346.634,10.281,17.807,596.427-360.9,603.6-348.486,9.17,15.882-603.924,332.054-594.019,349.211,7.9,13.684,592.5-360.951,600.672-346.8,7.753,13.427-601.836,334.579-593.514,348.994,10.125,17.537,595.812-362.156,603.677-348.533,7.415,12.843-608.793,338.592-600.931,352.21C1743.922,437.517,2330.1,64.5,2337.37,77.092c7.236,12.534-594.641,329.622-586.155,344.319,8.509,14.738,583.552-355.973,591.806-341.679,9.591,16.615-595.52,332.769-588.113,345.6,7.931,13.737,593.826-360.645,601.534-347.3,6.951,12.041-597.027,328.231-587.379,344.942,10.071,17.443,587.61-355.5,594.644-343.318,9.481,16.42-594.039,331.661-586.558,344.619,10.156,17.59,585.958-359.2,595.005-343.526,7.733,13.394-592.512,327.489-583.61,342.907,8.8,15.235,581.993-358.437,591.7-341.619,8.228,14.251-590.96,324.7-581.081,341.812,8.295,14.366,573.381-348.981,581.149-335.526,9.376,16.24-575.282,321.022-567.789,334,6.88,11.917,574.436-353.084,583.717-337.009,8.123,14.07-581.9,324.22-574.161,337.629C1829.66,436.072,2387.07,74.567,2396.675,91.2c7.451,12.906-568.7,313.069-559.479,329.037,7.585,13.137,556.506-341.67,565.327-326.392,9.172,15.886-563.268,309.686-553.817,326.054,7.4,12.822,554.1-335.542,560.872-323.82,6.6,11.424-554.783,310.154-548.088,321.75,2.545,4.408,159.943-97.333,162.1-93.59,2.725,4.721-157.373,91.327-155.02,95.4,1.963,3.4,155.823-94.416,157.751-91.077,2.2,3.815-139.193,81.044-136.988,84.863,1.956,3.389,135.623-83.566,137.9-79.618,1.676,2.9-124.32,73.9-122.695,76.714,2.024,3.506,117.371-71.291,118.9-68.646,1.557,2.7-106.849,63.681-105.319,66.332,1.407,2.437,95.41-59.008,97.109-56.065,1.218,2.11-78.557,48.093-77.291,50.286.857,1.484,74.066-45.4,75.207-43.421.7,1.213-51.79,33.579-51.069,34.826.454.788,34.463-20.763,34.838-20.114" fill="none" stroke="#f7f7f7" stroke-linecap="round" stroke-linejoin="round" stroke-width="3"/>
    <path id="Path_75" data-name="Path 75" d="M576.343,237.409C581.3,246,968.226-.726,973.371,8.185c5.2,9.005-400.007,224.977-395.167,233.36C583.929,251.462,973.639.83,979.013,10.138,985.223,20.9,578.079,235.983,582.824,244.2c5.027,8.706,402.31-245.01,407.825-235.458,5.19,8.989-402.8,222.591-395.939,234.472,5.257,9.1,397.98-243.007,403.71-233.082,6.178,10.7-405.975,224.122-399.246,235.775C604.223,254.655,1004.362.182,1009.468,9.026c5.616,9.727-411.864,228.881-405.519,239.87,6.5,11.252,402.921-247.581,409.4-236.365,6.7,11.611-406.589,227.624-401.178,237,6.907,11.963,399.367-246.836,406.408-234.64,5.935,10.279-401.6,225.259-396.41,234.258,7.089,12.278,400.181-244.011,405.8-234.286,5.732,9.928-406.256,226.713-400.205,237.194,4.969,8.606,399.834-246.1,406.44-234.659,5.785,10.019-407.952,227.674-402.043,237.908,6.958,12.051,409.06-250.386,415.216-239.725C1053,25.333,638.1,246.264,643.234,255.156c6.676,11.563,400.175-247.069,407.115-235.048,5.99,10.374-404.287,224.784-398.259,235.226,6.087,10.542,399.66-244.758,405.729-234.248,5.313,9.2-401.408,225.643-396.178,234.7,5.482,9.5,404.128-248.091,410.523-237.015C1078.648,30,656.6,252.791,661.71,261.635c7.089,12.279,405.2-244.936,409.956-236.688C1077.755,35.492,670.472,248.44,676.7,259.224c4.977,8.62,401.343-245.884,407.478-235.257,5.485,9.5-404.95,225.877-398.943,236.282C690.4,269.2,1087.788,14.594,1093.521,24.523c6.494,11.249-404.122,227.461-399.16,236.056,5.024,8.7,392.754-241.17,398.995-230.36,5.907,10.231-396.117,220.924-390.222,231.134C709.749,272.812,1112.068,10,1118.675,21.44c6.724,11.646-414.5,229.8-407.819,241.361,5.2,9,413.2-254.933,420.292-242.656,6.176,10.7-417.132,234.811-412.006,243.689,6.688,11.583,423.895-261.626,431.209-248.959,6.989,12.107-424.739,238.049-419.2,247.641,6.236,10.8,425.3-261.2,432.082-249.462,5.781,10.012-430.321,239.359-424.007,250.3,6.556,11.355,425.725-258.2,431.1-248.893,6.9,11.955-429.173,237.991-422.207,250.056C754.19,275.035,1184.616.622,1189.759,9.53c7.451,12.9-435.5,245.54-430.249,254.638,6.858,11.88,434-268.157,441.618-254.969,5.62,9.733-440.231,242.84-433.01,255.347,6.564,11.37,441.106-269.96,447.725-258.495,6.768,11.723-440.249,244.094-433.432,255.9C789.6,274.41,1218.474-1.918,1223.718,7.165c6.165,10.677-436.636,243.737-430.485,254.391,6.613,11.454,439.282-268.61,445.773-257.367,7.38,12.782-432.832,243.466-427.642,252.455,5.831,10.1,425.52-263.232,433.122-250.064,7.1,12.3-427.581,237.129-421.028,248.479,7.349,12.73,425.491-257.4,430.575-248.593,5.819,10.078-425.221,238.992-419.658,248.626C841.557,267.533,1262.917-6.17,1268.911,4.213c4.99,8.643-433.852,239.327-426.63,251.835C847.737,265.5,1270.552-3.508,1275.876,5.712,1281.587,15.6,850.007,245.1,855.449,254.526c6.132,10.62,424.783-261.294,431.731-249.26,7.126,12.343-431.413,242.111-425.964,251.549,5.664,9.81,434.938-265.905,441.344-254.81,5.476,9.485-439.641,247.506-434.3,256.758C873.8,268.35,1302.239-4.11,1307.572,5.126c5.471,9.477-446.686,246.7-439.375,259.361S1317.216-8.625,1323.222,1.778C1329.937,13.409,876.386,249.558,883.4,261.7c7.437,12.883,443.693-270.4,449.855-259.724C1340.306,14.2,876.9,254.4,884.342,267.279c5.283,9.151,452.576-275.665,458.8-264.887,6.36,11.015-452.571,250.356-445.159,263.193,5.752,9.963,449.044-276.023,456.3-263.447,6.269,10.857-460.934,254.32-453.4,267.38,6.646,11.511,448.675-275.434,455.772-263.14,5.942,10.291-458.942,258.4-453.635,267.589C908.595,283.61,1365.775-8.01,1372.188,3.1c5.513,9.549-479.931,265.5-472.519,278.333,7.176,12.43,470.486-287.463,477.34-275.592,7.06,12.228-477.912,265.083-470.515,277.9,6.52,11.293,473.465-286.6,479.2-276.666,7.315,12.67-490,271.065-482.144,284.68,7.328,12.693,483.625-298.176,491.833-283.959,7.98,13.822-493.759,278.078-487.992,288.066,6.627,11.478,492.627-299.439,499.131-288.174,8.017,13.887-513.359,281.4-504.607,296.56C909.4,317.2,1401.477-2.112,1409.241,11.337c8.242,14.275-507.022,282.746-500.192,294.576,8.4,14.557,508.173-313.265,516.778-298.361,6.524,11.3-527.561,294.307-520.665,306.252,7.359,12.746,513.481-316.8,522.288-301.543,8.026,13.9-525.126,289.045-516.455,304.064C918.952,330.106,1426.73-2.2,1435.723,13.372c6.626,11.476-531.343,298.192-525.134,308.946,8.8,15.243,522.474-322.653,531.568-306.9,6.475,11.214-533.446,295.857-525.478,309.657C925.774,340.827,1447.856-2.032,1456.7,13.291c7.2,12.478-543.4,303.847-536.477,315.841,7.618,13.2,539.673-327.426,546.535-315.542,7.554,13.085-557.582,311.625-550.408,324.05,8.271,14.327,545.734-330.5,552.41-318.934,7.749,13.422-554.257,305.2-545.593,320.205C930.7,351.957,1468.714,8.353,1475.464,20.044,1483.227,33.491,920.315,329.686,927.6,342.3c7.407,12.829,554.679-336.9,561.892-324.408,8.877,15.375-569.249,313.563-560.25,329.151,7.106,12.306,560.32-341.132,567.955-327.909,9.149,15.848-577.987,321.3-570.244,334.708,7.542,13.063,563.444-341.969,570.661-329.471,8.735,15.13-567.958,316.263-560.58,329.041,7.85,13.6,563.02-341.467,570.124-329.161,6.947,12.031-583.9,321.741-574.82,337.459,7.975,13.812,569.847-350.616,579.206-334.405,8.7,15.063-584.265,322.394-575.125,338.226,8.037,13.92,577.693-356.762,587.753-339.338,9.065,15.7-586.892,324.465-578.105,339.685,6.87,11.9,576.861-352.042,585.084-337.8,8.159,14.131-587.229,327.8-579.894,340.509,6.989,12.106,581.262-353.024,588.811-339.95,9.266,16.05-598.6,330.406-589.393,346.352,9.7,16.794,584.925-359.374,594.307-343.123,6.916,11.978-601.369,331.971-592.323,347.639,7.4,12.82,589.967-363.96,600.075-346.454,9.969,17.267-604.994,335.754-596.615,350.267,10.215,17.693,591.6-363.524,601.11-347.051,8.535,14.783-599.884,331.756-591.213,346.774,9.109,15.778,590.7-358.967,598.459-345.52,7.566,13.1-605.283,339.043-598.128,351.436,8.7,15.066,598.818-367.238,608.132-351.1,8.147,14.112-608.224,336.918-599.335,352.314C983.975,405.469,1570.6,22.844,1580.8,40.5c9.668,16.745-612.033,336.457-602.152,353.572C987.918,410.134,1580.8,26.4,1589.46,41.413,1599.829,59.374,977.3,382.918,985.006,396.264c9.757,16.9,598.743-368.782,608.745-351.459,8.354,14.47-619.427,339.961-609.373,357.374,8.927,15.462,604.541-371.31,614.187-354.6,7.832,13.565-618.032,338.92-607.54,357.093,7.116,12.326,607.5-374.359,617.73-356.647,8.55,14.809-616.886,343.814-609.157,357.2C1009.375,422.16,1600.889,39.8,1608.8,53.5c8.329,14.427-608.435,339.99-601.217,352.492,9.385,16.256,603.407-369.5,612.552-353.658,9.724,16.843-619.811,347.327-612.547,359.91C1017.859,430.034,1618.342,42,1625.974,55.222c10.1,17.487-625.24,343.706-615.509,360.56,7.822,13.549,610.352-373.818,619.632-357.745,9.933,17.2-621.938,345.9-613.679,360.2,7.646,13.244,612.009-374.868,621.329-358.725,10.569,18.305-623.533,347.177-615.65,360.832,8.834,15.3,607.8-372.963,617.35-356.427,7.188,12.45-616.6,345.209-609.511,357.495,9.161,15.867,609.224-371.345,617.715-356.638,7.151,12.387-617.54,344.549-609.933,357.724,8.453,14.642,604.312-369.225,613.113-353.981,8.919,15.448-613.45,336.1-603.047,354.114,7.955,13.779,599.785-363.78,607.36-350.659,9.368,16.225-614.123,338.038-604.681,354.392,8.534,14.781,606.383-369.8,614.913-355.021,9.758,16.9-621.05,343.115-611.827,359.09,7.766,13.452,605.2-369.414,613.862-354.413,7.539,13.057-612.427,336.509-602.649,353.444,8.471,14.672,597.739-365.534,606.586-350.212,10.284,17.813-608.978,336.683-600.141,351.988,7.782,13.479,593.318-365.847,603.405-348.376,7.869,13.63-604.072,335.946-596.181,349.614,8.495,14.713,595.724-362,603.545-348.456,9.532,16.511-606.005,331.8-595.748,349.567,7.19,12.453,591.54-359.713,599.415-346.072,7.091,12.281-606.9,335.725-597.921,351.27,8.938,15.481,596.788-364.342,605.356-349.5,9.584,16.6-600.02,331.892-591.272,347.045,9.62,16.661,585.961-359.632,595.2-343.637,7.223,12.51-604.46,334.149-595.666,349.382,7.37,12.765,590.941-364.606,601.085-347.036,9.641,16.7-593.32,331.112-585.914,343.941C1124.774,453.3,1697.1,82.221,1706.43,98.388c9.806,16.984-591.222,324.968-581.684,341.487,9.68,16.767,572.956-353.05,582.592-336.359,9.763,16.91-579.839,325.18-573.093,336.865,7.405,12.826,603.848-365.265,611.05-352.79,8.286,14.352-618.051,341.247-608.77,357.321,3.515,6.089,259.859-160.649,264.457-152.685,3.462,6-253.622,143.922-249.974,150.24,3.038,5.263,251.71-154.22,255.562-147.549,4.052,7.018-252.989,144.677-250.06,149.749,3.09,5.353,245.55-151.184,249.627-144.122,3.486,6.037-240.242,137.4-237.246,142.592,3.354,5.809,228.25-139.6,231.638-133.736,2.924,5.065-227.512,130.483-224.492,135.713,3.239,5.611,225.655-138.935,229.4-132.445,2.641,4.573-223.969,127.7-220.569,133.587s215.149-130.93,218.056-125.9c2.617,4.534-203.633,115.664-200.375,121.307,2.331,4.038,195.073-118.163,197.471-114.01,2.57,4.452-193.256,110.662-190.581,115.3,2.809,4.867,187-115.041,190.062-109.732,2.316,4.011-176.642,102.171-174.133,106.517,2.3,3.982,170.956-103.627,173.089-99.933,2.649,4.589-166.478,96.372-163.915,100.812,1.821,3.154,148.945-91.217,151.207-87.3,2.228,3.859-134.4,79.734-132.827,82.449,1.768,3.063,130.606-80.437,132.785-76.663,1.509,2.613-114.662,67.933-113.035,70.752,1.258,2.177,104.038-62.908,105.268-60.777,1.072,1.857-81.788,49.578-80.493,51.821.937,1.624,59.311-36.05,60.094-34.7" fill="none" stroke="#f7f7f7" stroke-linecap="round" stroke-linejoin="round" stroke-width="3"/>
    <path id="Path_76" data-name="Path 76" d="M762.448,59.995c.4.7,29.415-17.951,29.834-17.225.762,1.318-48.29,32.491-47.636,33.623,1.365,2.365,82.159-50.58,83.521-48.221,1.4,2.415-91.966,55.5-90.738,57.63,1.5,2.6,107.711-65.282,109.052-62.96,1.361,2.357-116.138,68.981-114.527,71.77,2.24,3.881,129.182-79.724,131.408-75.868,2.081,3.605-139.1,80.392-136.7,84.549,1.825,3.161,149.73-91.247,151.808-87.646,2.144,3.713-160.7,93.216-158.157,97.618,2.705,4.686,168.319-103.033,170.854-98.642,2.184,3.782-173.343,100.639-170.837,104.98C723.207,124.588,903.688,7.847,906.24,12.267c2.994,5.186-186.827,107.605-184,112.508,2.9,5.029,194.1-118.037,196.689-113.558" fill="none" stroke="#f7f7f7" stroke-linecap="round" stroke-linejoin="round" stroke-width="3"/>
    <path id="Path_77" data-name="Path 77" d="M61.43,67.017c.462.8,32.16-19.685,32.643-18.847C95.179,50.084,31.115,88.345,32,89.882c1.081,1.871,94.356-57.141,95.51-55.143C129.039,37.385,22.56,98.1,24.1,100.762c1.792,3.1,121.2-74.606,123.2-71.131,2.049,3.548-127.6,74.338-125.54,77.9,2.155,3.732,141.761-86.347,143.71-82.971,2.216,3.837-151.7,89.354-149.878,92.512,2.916,5.05,161.239-98.8,163.711-94.518C181.55,26.447,4.459,122.752,7.258,127.6,10.2,132.691,190.727,15.724,193.3,20.186,196.016,24.883,3.58,129.122,6.51,134.2,9.351,139.117,208.835,9.9,212.077,15.512,215.643,21.688,3.519,133.645,7.108,139.862c2.546,4.409,212.87-129,215.511-124.425C225.162,19.843,2.525,140.248,5.945,146.172,8.982,151.433,234.473,6.505,237.819,12.3,241.653,18.942-.512,148.981,2.406,154.035,6.5,161.124,237.939,8.741,241.97,15.723,245.659,22.113-1.261,152.61,2.527,159.171,6.82,166.607,249.484,8.429,253.018,14.55c3.121,5.407-253.707,144.7-250.6,150.077,4.12,7.137,258.626-158.3,262.517-151.564C268.055,18.474,1.35,162.344,5.291,169.169c3.5,6.07,264.254-161.514,268.129-154.8,3.474,6.017-269.273,153.213-265.93,159C11.717,180.689,284.746,4.3,288.643,11.044,293.516,19.486-3,175.17,1.551,183.056,5.1,189.2,289.8,7.558,293.733,14.365,297.464,20.826,1.922,177.689,6.774,186.092,10.37,192.32,303.353,4.938,307.65,12.381,311.287,18.679,5.7,181.12,10.614,189.628,14.244,195.913,312.2,4.916,316.79,12.857,320.6,19.462,7.877,187.219,12.3,194.872,17.08,203.157,323.206,5.22,327.6,12.831c5.1,8.836-315.568,178.724-311.772,185.3C21.014,207.11,330.8,7.061,334.791,13.977c5.04,8.73-327.895,183.2-322.732,192.148,4.31,7.464,320.062-196.962,325.334-187.832C342.333,26.85,8.415,202.844,13.428,211.527,18.722,220.7,345.794,9.146,350.336,17.013c5.325,9.224-338.964,190.374-334.175,198.669,5.29,9.161,337.622-208.391,343.453-198.293C364.676,26.158,14.2,208.938,19.931,218.862c4.8,8.3,339.418-208.312,344.765-199.05,5.58,9.665-347,196.115-342.688,203.584C26.27,230.779,371.516,10.654,376.259,18.869c4.3,7.452-356.906,198.7-351.427,208.193C29.367,234.918,377.9,11.069,383.158,20.182,389.075,30.43,21.149,220.154,27.313,230.83,32.052,239.038,376.881,16.165,382.442,25.8c6.077,10.527-356.164,198.287-350.7,207.753,5.438,9.418,357.385-217.618,362.27-209.157C399.739,34.31,33.634,225.657,39.1,235.128c4.281,7.416,357.07-218.993,362.63-209.364,5.234,9.067-369.395,207.36-364.192,216.371C42.6,250.908,405.938,18.093,410.852,26.6,416.745,36.811,37.109,236.569,42.185,245.362,46.917,253.557,409.928,22.026,414.7,30.29,420.792,40.842,43.382,236.4,49.325,246.7,55.644,257.641,417.032,23.73,421.652,31.732c5.52,9.561-374.7,207.194-368.277,218.314C58.657,259.2,417.83,28.223,422.769,36.777,427.63,45.2,55.94,243.909,60.513,251.831c4.537,7.858,370.456-227.448,376.33-217.275,5.71,9.891-383.65,213.371-377.568,223.9C64.522,267.549,431.294,29,437.65,40.006,442.006,47.551,62.6,251.655,66.986,259.246,73.4,270.35,442.7,30.173,447.966,39.286c5.466,9.466-381.2,214.41-376.4,222.723C77.876,272.934,447.225,29.951,453.794,41.33,460.233,52.483,72.832,257.15,77.26,264.819c4.525,7.837,378.53-230.714,383.8-221.587,5.6,9.7-386.477,218.127-381.76,226.3,5.918,10.251,375.9-231.9,382.338-220.744,5.541,9.6-381.032,212.4-375.461,222.047,6.059,10.495,377.684-230,382.856-221.042,5.762,9.98-385.331,214-379.354,224.35,5.009,8.675,376.8-232.995,383.492-221.408C479.074,62.959,85.325,272.27,89.959,280.3c6.072,10.517,381.29-234.271,387.41-223.672,6.271,10.863-381.433,215-376.514,223.524,4.661,8.074,377.889-232.061,383.9-221.646,5.608,9.714-383.152,212.144-376.785,223.17S483.161,51.449,489.053,61.655C495.726,73.212,99.41,279.62,105.024,289.344,111.641,300.8,494.387,51.388,500.084,61.256c6.627,11.477-388.427,219.2-383.774,227.256C121.221,297.019,494.1,57.609,499.633,67.2c5.418,9.383-384.323,217.758-379.809,225.576,5.545,9.605,382.727-231.455,387.268-223.589C511.733,77.225,124.5,284.82,129.4,293.309,135.745,304.3,503.487,65.354,508.672,74.335,514.923,85.162,126.969,287.4,132.454,296.9c5.863,10.155,381.352-231.351,386.191-222.968,5.532,9.581-385.2,217.368-380.557,225.406,4.541,7.865,377.117-232.019,383.305-221.3,6.147,10.646-381.416,213.718-376.142,222.854C151.825,312.28,522.7,71.13,527.824,80.014,532.716,88.487,142.418,296.9,147.5,305.7,153.52,316.125,523.06,74.883,529.115,85.371c5.617,9.73-376.239,209.1-370.312,219.367,5.717,9.9,367.14-225.906,373.175-215.453,4.489,7.776-376.072,210.678-371,219.463C166.07,317.569,534.323,79.233,540.37,89.706c6.057,10.492-373.329,207.268-367.286,217.735C179.408,318.393,537.131,84.6,542.611,94.1c6.142,10.638-373.116,208.5-367.645,217.98C181.306,323.057,545.3,86.934,550.209,95.428c6.031,10.445-375.3,211.861-370.58,220.039,4.285,7.421,363.588-219.849,367.888-212.4,5.8,10.039-360.18,202.644-355.438,210.857,5.549,9.611,357.964-217.438,362.626-209.362,6.2,10.745-360.6,203.893-356.089,211.7,4.632,8.023,349.983-214.644,355.431-205.208,4.509,7.809-359.277,199.062-353.37,209.294,5.26,9.111,354.364-216.42,359.486-207.549,4.158,7.2-356.62,201.613-352.119,209.408S558.1,109.85,562.537,117.539C568,127,211.31,316.655,215.642,324.158c4.431,7.674,349.235-212.526,353.953-204.355,5.143,8.91-350.476,195.559-344.818,205.359C229.36,333.1,567.649,115.767,572.6,124.346c4.229,7.324-340.7,192.962-336.7,199.883,4.963,8.6,335.868-203.884,340.186-196.406C581.745,137.628,241.5,315.175,246.71,324.2c5.31,9.2,328.826-201.914,334.051-192.865,4.976,8.619-335.2,186.845-329.553,196.619,4.412,7.642,328.251-202.427,333.842-192.744,5.622,9.739-331.934,186.893-327.159,195.163,5.629,9.751,332.481-203.977,337.686-194.963,4.366,7.563-328.1,183.568-322.857,192.651,4.048,7.013,339.073-207.644,344.217-198.734,4.18,7.241-337.617,190.711-333.2,198.357,5.182,8.975,338.977-208.989,344.728-199.029C634.106,138.43,287.61,320.3,292.351,328.51c5.719,9.9,340.064-206.244,344.354-198.813,5.174,8.96-342.216,194.454-338.15,201.5,5.361,9.286,346.529-211.488,351.474-202.924,4,6.927-342.532,192.756-337.732,201.071,4.4,7.622,340.422-207.106,345-199.184,4.424,7.663-342.036,190.955-336.848,199.94,4.846,8.394,341.057-209.979,346.716-200.177,5.636,9.761-341.005,190.564-335.688,199.775,5.789,10.027,348.491-211.887,353.118-203.872,5.356,9.277-348.641,195.138-343.7,203.7,5.885,10.192,344.686-211.571,350.128-202.146C695.766,135.6,339.584,322.85,345.273,332.7,349.487,340,698.437,117.1,703.5,125.878c5.949,10.305-350.912,197.009-345.98,205.55,6,10.392,347.129-213.483,352.788-203.683C714.906,135.7,373.247,318.863,377.48,326.2c8.6,14.887,542.526-331.472,550.426-317.789,8.112,14.051-554.92,308.622-547.566,321.36,8.55,14.809,546.93-334,554.826-320.329,7.243,12.545-541.4,299.58-533.17,313.826C410.265,337.586,941.4-5.595,948.948,7.48,956.2,20.048,403.082,310.242,410.776,323.569,420.158,339.82,951.627-5.325,958.83,7.15,967.924,22.9,421,306.86,428.142,319.236c7.011,12.143,525.263-324.617,534.511-308.6,9,15.585-525.572,294.151-519.079,305.4,1.534,2.656,123.66-75.352,125.374-72.384,1.633,2.83-101.18,60.386-99.417,63.439,1.347,2.333,83.806-51.989,85.366-49.287.729,1.263-57.34,36.157-56.337,37.9.511.885,43.322-26.687,44.047-25.431" fill="none" stroke="#f7f7f7" stroke-linecap="round" stroke-linejoin="round" stroke-width="3"/>
    <path id="Path_78" data-name="Path 78" d="M2915.106,385.219c2.076,3.6,134.118-81.935,136.067-78.558,1.408,2.439-104.761,62.486-102.987,65.558,1.253,2.171,106.014-65.132,107.714-62.188,1.816,3.145-106.549,63.963-105.267,66.183,1.649,2.857,103.578-63.174,105.038-60.644,1.583,2.741-100.612,60.359-99.144,62.9,1.494,2.587,98.22-59.655,99.5-57.444,1.571,2.72-92.886,55.8-91.417,58.342,1.486,2.574,88.287-54.2,89.685-51.78,1.131,1.96-81.909,50.588-80.621,52.818,1.2,2.069,78.769-48.5,80.079-46.233,1.125,1.949-78.576,49.385-77.576,51.118,1.083,1.876,78.935-48.547,80.223-46.317,1.211,2.1-68.071,43.514-67.185,45.049.836,1.447,57.389-35.6,58.457-33.75.692,1.2-51.917,33.623-51.075,35.083.783,1.354,50.984-30.919,51.627-29.807.526.912-37.459,26.04-36.8,27.186.382.662,22.667-13.858,23-13.28" fill="none" stroke="#fff" stroke-linecap="round" stroke-linejoin="round" stroke-width="3"/>
    <path id="Path_79" data-name="Path 79" d="M2693.466,251.093c.394.682,24.3-14.891,24.671-14.244.546.946-33.26,24.088-32.841,24.814.916,1.587,66.7-40.515,67.57-39.011,1.375,2.38-83.231,50.807-82.117,52.737,1.522,2.636,91.814-55.6,92.935-53.656" fill="none" stroke="#fff" stroke-linecap="round" stroke-linejoin="round" stroke-width="3"/>
    <path id="Path_80" data-name="Path 80" d="M2205.643,430.672c5.959,10.322,348.118-214.167,353.826-204.282,6.049,10.477-351.515,198.443-347.136,206.028,5.35,9.267,344.019-211.087,349.417-201.737,5.344,9.256-343.916,192.4-338.979,200.955,4.238,7.339,339.62-209.445,345.406-199.42,4.351,7.533-342.708,192.607-338.179,200.453,5.83,10.1,342.25-207.227,346.419-200.005,5.343,9.256-339.691,189.464-334.093,199.161,5.176,8.966,336.27-207.765,342.168-197.55,4.259,7.378-338.958,189.582-333.607,198.85,4.713,8.163,331.42-201.8,335.948-193.96,3.913,6.778-337.14,189.408-332.29,197.811,5.8,10.046,335.829-206.141,341.134-196.953,4.588,7.947-335.323,186.352-329.705,196.081,4.443,7.7,329.08-201.709,334.153-192.923,5.264,9.118-330.763,184.873-325.417,194.133,5.633,9.756,328.379-202.834,334.114-192.9,4.974,8.615-331.325,186.354-326.6,194.535,5.625,9.743,328.619-202.359,334.089-192.885,5.283,9.149-326.761,183.027-321.971,191.322,4.516,7.823,321.344-196.474,326.083-188.264,4.052,7.017-320.761,182.152-316.969,188.719,5.033,8.718,315.595-192.011,319.839-184.659,4.63,8.019-320.346,180.957-316.01,188.468,4.8,8.31,322.567-198.843,328.027-189.386S2315.972,431.53,2320.6,439.548c5.048,8.743,311.228-188.87,315.2-181.983,4.232,7.329-309.117,174.77-305.089,181.746,5.441,9.425,304.9-187.407,309.826-178.878,4.278,7.409-301.449,170.837-297.746,177.25,3.8,6.585,300.327-183.447,304.68-175.907,4.418,7.652-299.7,170-295.857,176.657,3.614,6.259,301.765-183.56,305.808-176.558,3.533,6.121-303.18,171.757-299.127,178.778,4.342,7.519,294.438-180.1,298.813-172.52,4.755,8.236-291.293,163.094-286.566,171.282,4.842,8.387,289.019-177.448,293.6-169.511,4.821,8.348-290.969,165.837-287.529,171.794,3.729,6.458,285.656-173.3,289.283-167.018,4.566,7.908-282.521,158.562-278.23,165.995,6.284,10.883,373.464-229,379.259-218.966,4.931,8.539-378.713,210.142-372.767,220.441,5.665,9.812,381.212-235.129,387.724-223.852,5.5,9.521-382.734,213.853-377.012,223.766,5.646,9.778,385.148-234.165,390.259-225.315,4.56,7.9-376.769,211.981-371.717,220.732,4.716,8.166,377.733-231.366,383.484-221.4,4.45,7.707-384.084,215.246-378.578,224.783,5.716,9.9,383.047-235.012,389.049-224.617,6.128,10.615-384.186,214.188-378.4,224.211,5.563,9.634,383.005-235.712,389.319-224.774,4.968,8.6-380.15,214.117-375.207,222.681,5.421,9.388,377.124-230.323,382.577-220.88,5.241,9.077-373.926,208.765-368.561,218.057,4.653,8.06,373.74-228.907,379.425-219.061,5.863,10.155-371.651,207.583-366.1,217.2,5.761,9.978,372.238-225.307,376.74-217.51,5.6,9.693-376.862,213.581-372.427,221.262,5.186,8.983,371.169-227.9,377.062-217.7,4.806,8.325-373.01,206.927-367.027,217.291,6.137,10.629,364.436-225.453,370.952-214.169,4.858,8.416-373.566,208.573-368.151,217.951s372.341-225.657,376.968-217.643c5.441,9.422-373.462,210.928-368.795,219.01,5.48,9.494,370.038-225.4,375.131-216.582,4.51,7.812-375.561,207.8-369.147,218.913,6.095,10.557,376.892-231.208,382.785-221,5.956,10.316-375.847,210.573-370.532,219.779,6.086,10.542,368.75-227.594,375.113-216.572,5.44,9.423-379.09,209.676-372.625,220.872,4.684,8.113,373.49-229.161,379.347-219.016,4.653,8.06-373.82,211.057-369.341,218.814,4.569,7.913,365.5-222.685,370.547-213.935,5.015,8.688-364.5,202.89-358.59,213.127,5.592,9.685,358.34-221.487,364.662-210.537,5.878,10.183-366.373,203.22-360.411,213.547,6.048,10.473,361.468-220.094,366.405-211.544,5.383,9.324-364.672,202.954-358.676,213.34,4.284,7.421,364.841-223.876,370.571-213.949,6.372,11.035-369.991,209.119-365.3,217.248,4.644,8.044,364.339-220.64,368.795-212.924,5.037,8.728-355.962,200.859-351.2,209.113,4.667,8.083,354.019-215.182,358.691-207.09s-355.271,200.892-350.854,208.544c5.775,10,344.09-208.795,348.479-201.194,5.583,9.671-346.183,193.049-340.794,202.383,4.867,8.431,343.648-212.186,349.615-201.851,4.492,7.781-347.284,195.7-342.588,203.836,5.565,9.639,342.963-208.821,347.644-200.713,4.547,7.876-346.257,194.708-341.493,202.959,4.856,8.413,340.372-205.8,344.394-198.836,3.867,6.7-334.7,189.6-330.669,196.581,5.029,8.71,330.211-201.577,334.943-193.38,5.768,9.99-337.248,187.733-331.666,197.4,4.486,7.77,334.434-206.129,340.082-196.346,3.991,6.915-331.276,188.394-327.316,195.253,4.916,8.514,326.09-199.62,331-191.106,4.1,7.094-331.087,185.853-326.335,194.083,4.624,8.01,325.57-198.177,329.991-190.52,4.92,8.522-318.829,180.883-315.082,187.375,4.646,8.048,324.924-198.531,329.66-190.328,5.268,9.125-322.8,180.774-317.713,189.583,4.838,8.38,319.707-196.709,324.958-187.614,4.788,8.293-327.981,182.665-322.513,192.136,5.094,8.823,327.676-201.1,332.835-192.163,5.127,8.882-322.447,179.685-317.037,189.055,4.424,7.664,312.432-191.582,317.282-183.183,3.679,6.372-308.314,174.815-304.233,181.882,3.844,6.658,306.111-185.731,310.007-178.982,4.133,7.159-311.351,174.43-306.732,182.428,4.444,7.7,309.729-189.607,314.4-181.519,5.309,9.2-308.832,174.5-304.789,181.5,4.346,7.527,311-188.649,314.936-181.829,4.567,7.911-303.6,170.629-298.9,178.765,5.063,8.769,295.03-182.262,300.2-173.317,4.229,7.327-296.145,165.048-291.13,173.732,4.014,6.953,288.192-176.444,292.546-168.9,3.756,6.5-285.319,159.688-280.471,168.084,4.93,8.54,284.888-174.192,289.094-166.909,3.768,6.527-285.439,160.111-281.1,167.629,4.6,7.971,273.434-167.687,277.686-160.323,3.43,5.939-268.232,152.217-264.534,158.622,4.61,7.984,263.607-162.845,268.219-154.856,4.02,6.963-262.025,150.2-259,155.431,3.933,6.813,264.629-161.026,268.2-154.844,3.871,6.706-253.553,143.753-250.051,149.82,1.9,3.3,108.616-66.851,110.409-63.745,1.434,2.483-102.771,62.17-101.458,64.443,1.426,2.47,104.825-64.5,106.549-61.516,1.382,2.4-86.482,52.789-85.073,55.228,1.211,2.1,78.851-48.255,80.033-46.207.941,1.631-69.53,43.781-68.5,45.561.868,1.5,69.488-41.974,70.291-40.582.775,1.342-53.748,34.959-53.1,36.079.72,1.248,50.249-30.768,51.009-29.45" fill="none" stroke="#fff" stroke-linecap="round" stroke-linejoin="round" stroke-width="3"/>
    <path id="Path_81" data-name="Path 81" d="M892.317,359.286c4.271,7.4,353.471-218.223,359.6-207.613,4.729,8.192-352.164,197.948-347.515,206,6.111,10.584,352.977-213.9,357.352-206.317,5.367,9.295-359.309,200.8-353.695,210.525,4.74,8.21,364.147-222.7,369.54-213.354C1283.8,159.278,912.829,352.2,918.482,361.993c5.366,9.295,358.489-219.14,363.757-210.015,5.634,9.759-368.873,204.021-362.628,214.836,5.333,9.238,364.683-221.013,369.214-213.166,4.379,7.585-361.666,201.092-355.878,211.117,5.043,8.734,366-221.689,370.492-213.9,4.98,8.624-374.285,208.583-368.53,218.551,5.773,10,369.584-223.691,374.049-215.957,5.494,9.515-369.748,207.684-364.877,216.121,5.986,10.369,363.395-222,368.674-212.854,5.353,9.272-366.736,203.823-360.71,214.262,4.3,7.447,368.87-224.505,373.866-215.852C1331.848,165.415,951.6,362.9,957.553,373.214c6.287,10.889,364.068-225.038,370.495-213.906,5.185,8.98-369.964,207.71-365.038,216.242,6.308,10.927,369.1-224.218,373.916-215.88,5.267,9.123-372.828,207.16-366.827,217.554,4.821,8.351,366.028-224.976,371.939-214.739,5.994,10.382-361.565,202.245-356.34,211.294,5.411,9.372,359.673-219.077,364.618-210.513,5.747,9.956-365.137,204.513-359.83,213.705,5.414,9.377,359.568-219.15,364.571-210.485,5.16,8.938-357.809,201.415-353.142,209.5,5.282,9.149,357.21-218.839,362.668-209.387,4.924,8.53-357.3,201.4-352.6,209.548,5.484,9.5,358.707-221.69,365.025-210.747,5.629,9.751-362.157,202.078-356.807,211.345,5.447,9.434,365.86-225.079,371.857-214.692,4.9,8.486-371.171,208.809-366.332,217.191,5.39,9.336,376.28-229.255,381.481-220.248,5.05,8.748-378.215,209.64-371.795,220.76,4.867,8.43,384.6-236.6,390.9-225.685,5.348,9.263-385.021,213.554-378.731,224.449,5.688,9.851,387.206-237.044,393.048-226.926,6.064,10.5-392.943,220.337-387.671,229.469,6.82,11.811,390.421-238.378,396.036-228.652,5.441,9.423-384.476,214.2-378.545,224.472,5.986,10.367,386.732-238.456,393.3-227.074,5.323,9.22-390.116,217.81-384.214,228.034,5.86,10.15,387.807-237.876,393.859-227.4,5.631,9.754-391.24,216.37-384.829,227.475,6.508,11.273,393.4-239.162,398.61-230.138,5.539,9.593-394.594,218.3-388.042,229.644,6.646,11.51,391.725-237.783,396.757-229.067,5.184,8.98-380.691,214.442-375.737,223.022,6.272,10.863,386.282-234.458,391.234-225.88,5.546,9.6-381.577,214.064-376.377,223.071,5.564,9.637,384.559-234.382,389.909-225.115,5.266,9.121-391.974,217.868-385.73,228.683,6.762,11.712,387.224-238.8,393.82-227.372,4.543,7.869-388.963,217.9-383.4,227.543,5.456,9.45,392.8-238.511,397.879-229.715,6.3,10.917-398.279,221.756-392.373,231.986,5.876,10.176,393.069-240.892,399.111-230.427,6.1,10.563-396.462,223.025-391.35,231.879,6.264,10.85,394.342-241.089,400.152-231.028,6.586,11.409-398.58,220.561-391.937,232.067,7.007,12.137,399.426-243.52,405.017-233.837,6.466,11.2-411.06,228.533-404.8,239.366,6.938,12.018,402.716-248.443,409.616-236.492,5.363,9.289-404.845,224.426-398.33,235.711,5.739,9.94,403.732-247.441,409.944-236.681,5.138,8.9-405.825,229.46-401.041,237.746,6.784,11.751,401.148-247.924,408.215-235.683,6.946,12.03-412.229,228.7-405.843,239.756,6.439,11.153,413.11-252.525,419.179-242.013,5.546,9.607-424.049,236-417.567,247.225,6.508,11.272,420.209-258.854,427.244-246.67,6.114,10.591-438.314,244.161-432.135,254.864,7.174,12.426,430.536-263.228,436.883-252.235,7.313,12.667-443.144,245.974-436.325,257.785,7.549,13.075,443.353-271.59,450.117-259.875,5.924,10.261-458.678,254.414-451.54,266.779,6.833,11.834,453.069-273.759,458.343-264.625,6.041,10.462-456.546,251.736-449,264.812,7.341,12.716,454.175-275.979,460.133-265.658,5.619,9.732-466.356,259.52-459.415,271.543,5.732,9.928,460.425-281.838,467.358-269.829,6.162,10.673-475.6,263.188-468.221,275.966,6.69,11.587,470.135-287.3,477.007-275.4,6.6,11.426-480.869,264.9-472.747,278.966,6.185,10.713,473.051-286.477,478.836-276.457,6.62,11.466-487.779,272.383-481.063,284.014,7.3,12.641,477.875-293.745,485.6-280.362,7.317,12.675-493.656,272.622-485.922,286.018,7.908,13.7,485.932-297.634,493.328-284.823C1702.46,171.7,1198.116,435.55,1204,445.744c6.546,11.337,497.948-301.593,504.055-291.016,6,10.4-505.379,279.422-497.582,292.926,8.268,14.321,493.534-298.689,499.487-288.378,6.569,11.378-508.732,282.436-501.144,295.579,6.456,11.181,503.163-304.223,509.1-293.932,7.3,12.65-510.024,284.22-503.009,296.37,7.379,12.781,505.8-309.773,513.485-296.461,6.276,10.871-514.7,285.089-507.108,298.241,7.826,13.554,507.425-312.24,515.773-297.782,8.848,15.326-521.14,288.883-513.684,301.8,7.743,13.409,514.372-311.665,520.734-300.646,8.651,14.985-526.7,294.579-520,306.182,6.715,11.63,521.785-315.891,528.124-304.912,9,15.584-529.271,292.6-521.107,306.742,8.255,14.3,513.646-316.061,522.093-301.43,6.448,11.168-524.436,293.209-517.835,304.642,9.184,15.906,519.408-314.795,525.866-303.609,8.583,14.866-530.081,294.1-522.467,307.286,8.715,15.1,524.24-320.5,531.961-307.127,7.893,13.671-540.4,301.287-533.312,313.567,8.006,13.865,530.335-322.326,537.323-310.223,7.979,13.821-542.58,298.238-533.53,313.913,8.817,15.271,537.351-327.335,544.753-314.513,7.117,12.325-543.563,301.472-535.713,315.069,7.637,13.228,531.722-323.659,538.94-311.157,9.149,15.846-541.2,299.056-532.685,313.8,6.494,11.249,535.031-330.061,544.194-314.191C1809.914,192.4,1254,479.348,1262.23,493.606c9.244,16.013,533-323.765,539.941-311.735,8.3,14.369-547.484,304.292-539.778,317.64,6.945,12.029,543.608-334.582,552.584-319.035,7.052,12.215-552.806,304.691-544.274,319.469,7.33,12.7,541.505-327.368,547.883-316.321,8.557,14.82-556,308.512-547.89,322.555,9.1,15.769,549.543-337.625,558.353-322.366,7.772,13.462-557.221,310.443-549.6,323.637,8.995,15.579,542.325-330.326,549.779-317.415,8.269,14.323-555.141,304.782-545.647,321.226,8.468,14.666,551.245-335.911,558.887-322.674,8.921,15.451-560.12,313.7-553.331,325.458,7.895,13.675,543.517-335.129,552.753-319.132,6.63,11.483-550.634,304.06-542.027,318.969,8.573,14.849,541.4-327.773,547.977-316.375,6.848,11.86-552.772,310.52-546.332,321.674,7.8,13.51,547.889-337.127,556.9-321.524,6.7,11.6-556.638,309.284-548.989,322.531,6.43,11.138,547.834-337.9,557.192-321.695,7.149,12.382-556.668,312.22-550.265,323.311,7.646,13.243,540.144-331.7,548.739-316.815,8.169,14.15-554.874,305.9-545.991,321.288,8.143,14.1,546.8-332.387,554.026-319.867,8.438,14.614-553.74,306.265-545.511,320.519,9.266,16.048,543.647-331.112,551.111-318.184,7.483,12.961-555,309.732-548.079,321.716,6.816,11.8,547.936-331.537,554.512-320.147,8.067,13.972-554.541,307.61-546.563,321.429,6.382,11.053,545.578-332.125,553-319.273,7.36,12.748-556.253,307.806-547.822,322.408,6.52,11.294,542.576-329.63,549.666-317.349,6.85,11.864-548.993,305.5-541.4,318.66,9.184,15.907,536.077-326.1,543.262-313.652,8.424,14.59-546.232,299.981-537.126,315.753,6.332,10.968,537.164-326.847,544.4-314.311,7.93,13.734-542.009,303.028-535.307,314.637,8.594,14.886,530.981-324.041,538.55-310.932,7.979,13.821-537.811,301.75-531.343,312.953,8.527,14.769,534.534-326.183,542.142-313.006,8.146,14.11-538.835,302.249-532.39,313.412,8.536,14.784,529.71-320.662,536.134-309.536,8.208,14.218-536.832,296.777-528.611,311.015,7.844,13.587,547.994-332.822,555.112-320.494,8.316,14.4-547.531,305.388-540.363,317.8,8.77,15.191,556.944-343.021,566.241-326.919,8.89,15.4-564.852,311.552-555.853,327.138,8.138,14.1,564.458-345.137,572.793-330.7,7.682,13.306-577.159,322.768-570.367,334.532,8.678,15.031,575.43-352.4,584.166-337.269,8.379,14.514-582.6,322.363-573.989,337.275,10.027,17.367,581.363-355.889,590.126-340.709,7.109,12.312-583.78,322.8-575.2,337.662,7.049,12.209,584.493-359.917,594.218-343.072,9.5,16.458-597.809,329.62-588.588,345.59,8.451,14.639,594.358-361.213,602.178-347.668,8.127,14.075-595.227,329.631-586.658,344.474,8.857,15.34,595.036-360.645,602.441-347.819,8.932,15.471-605.32,333.4-595.88,349.749,10.374,17.969,596.073-360.614,603.205-348.26,8.086,14.005-589.605,329.933-582.75,341.806,8.18,14.169,592.794-360.513,600.7-346.815,8.106,14.04-599.478,329.235-589.781,346.031,8.227,14.25,584.29-359.2,593.754-342.8,6.739,11.673-588.049,322.834-578.143,339.991,8.584,14.868,587.142-356.667,594.8-343.407,8.366,14.49-579.8,319.8-571.058,334.945,9.869,17.094,576.165-349.108,583.292-336.764,7.937,13.748-550.22,303.934-542.006,318.162,6.817,11.807,540.037-330.36,548.077-316.433,7.5,12.99-549.764,306.286-542.454,318.947,7.67,13.285,545.507-335.492,554.4-320.084,7.9,13.678-553.3,310.58-546.841,321.768,6.835,11.84,548.845-336.116,557.176-321.686,8.306,14.386-553.214,309-546.032,321.436,7.3,12.639,550.654-333.9,557.573-321.915,7.256,12.568-565.8,310.221-556.343,326.6,8.165,14.142,559.312-341.063,567.169-327.455,8.751,15.158-562.324,310.965-554.141,325.137,8.1,14.029,554.248-340.72,563.222-325.176,6.744,11.68-567.042,316.253-559.685,329,6.889,11.931,567.69-343.476,574.5-331.686,7.19,12.453-569.845,313.049-560.366,329.467,7.078,12.26,565.285-342.853,572.424-330.489,9.216,15.963-574.554,321.859-567.706,333.722,8.982,15.556,570.033-351.064,579.54-334.6,7.666,13.279-583.164,323.13-574.934,337.384,9.362,16.214,569.186-347.538,577.378-333.349,9.167,15.878-574.489,321.948-567.738,333.641,7.182,12.44,569.022-350.411,578.5-334,8.621,14.932-572.27,320.99-565.672,332.42,6.695,11.595,571.363-347.258,578.889-334.222,9.114,15.787-579.95,323.456-572.741,335.943,9.636,16.691,567.163-350.187,577.008-333.135,7.418,12.85-578.026,318.42-568.785,334.425C1696.055,537.1,2257.2,172.21,2265.409,186.43c9.694,16.79-570.083,315.772-561.84,330.05,8.674,15.024,567.884-350.244,577.573-333.462,8.279,14.338-577.409,323.131-570.5,335.095s562.134-347.552,572.1-330.3c7.564,13.1-573.7,317.735-565.366,332.176,6.927,12,568.086-346.228,575.986-332.546,6.728,11.653-566.286,316.413-559.207,328.674,9.36,16.211,558.1-342.64,566.946-327.326,6.583,11.4-569.186,312.494-559.628,329.048,8.242,14.277,567.349-344.606,574.73-331.821,9.392,16.267-569.068,312.643-559.52,329.182,6.654,11.524,561.012-341.67,568.707-328.343,7.09,12.281-570.453,318.634-563.237,331.132,8.766,15.184,565.534-345.644,573.819-331.295,9.248,16.02-565.017,317-558.464,328.352,8.51,14.74,553.57-340.429,562.588-324.81,8.937,15.479-553.7,305.4-544.844,320.735,7.322,12.681,546.362-330.989,553.094-319.329,6.637,11.5-548.588,306.014-541.279,318.674,9.039,15.655,541.629-332.185,550.062-317.578,7.258,12.571-538.023,298.53-530.106,312.242,7.993,13.846,532.154-322.85,538.913-311.142,6.635,11.491-532.944,298.331-526.352,309.748,8.584,14.868,527.81-322.523,535.515-309.179,7.336,12.708-538.263,297.36-530.161,311.393,8.823,15.282,537.8-327.9,545.336-314.85,8.38,14.514-547.109,305.864-540.479,317.348,8.519,14.756,533.289-327.845,541.927-312.882,6.751,11.692-543.873,298.483-534.758,314.271,9.02,15.622,537.509-328.34,545.308-314.833,9.107,15.775-546.853,299.565-537.543,315.691,6.687,11.581,536.061-327.815,543.993-314.075,7.389,12.8-545.154,301.045-536.892,315.356,8.636,14.957,534.737-329.813,543.866-314,7.017,12.152-544.226,303.408-537.006,315.914,7.185,12.444,537.429-324.834,543.73-313.922,8.529,14.774-542.44,298.622-533.65,313.847,9.409,16.3,534.485-324.214,541.252-312.492,8.262,14.31-541.947,302.532-535.025,314.522,7.761,13.442,536.919-324.9,543.377-313.719,8.7,15.066-538.336,302.544-532.109,313.329,9.046,15.668,533.711-328.407,542.487-313.2,6.5,11.252-546.03,300.214-537.062,315.747C1920.544,533.2,2448,192.534,2454.789,204.285c7.019,12.158-546.4,301.442-537.877,316.206,6.835,11.837,539.228-330,547.312-315.991,8.207,14.213-541.607,297.106-532.375,313.1,6.735,11.664,535.96-323.984,542.259-313.074,8.639,14.963-540.549,303.025-534.143,314.121,8.935,15.476,526.727-324.665,535.629-309.246,8.251,14.292-534.882,296.22-526.778,310.256,9.356,16.205,528.443-320.543,535.131-308.959,6.755,11.7-537.416,300.858-531.017,311.941,8.954,15.509,531.989-323.238,538.958-311.167,7.007,12.137-540.19,301.612-533.277,313.585,7.2,12.468,535.027-324.694,541.867-312.847,7.071,12.249-532.222,296.581-525.291,308.585,8.674,15.025,522.885-320.959,531.143-306.656,7.234,12.531-532.4,296.331-524.945,309.25,8.246,14.283,525.419-320.892,533.015-307.737,6.286,10.888-533.271,297.012-526.125,309.389,6.5,11.261,527.8-322.36,535.434-309.133,8.683,15.039-534.8,297.208-527.449,309.939,8.712,15.09,527.114-323.748,535.522-309.184,7.188,12.449-529.323,295.629-522.736,307.037,8.4,14.558,514.082-316.138,522.453-301.638,6.764,11.714-522.175,289.635-514.428,303.055,6.531,11.31,519.021-314.836,525.593-303.452,7.549,13.075-517.49,284.846-508.8,299.9,7.983,13.826,509.868-309.913,516.6-298.258,8.13,14.082-510.7,285.026-504.126,296.407,6.62,11.467,505.652-308.65,512.888-296.116,6.075,10.521-510.409,286.772-504.318,297.322,1.822,3.156,144.591-88.212,146.641-84.663,1.917,3.322-129.033,75.558-126.888,79.274,2.079,3.6,126.085-77.184,127.986-73.892,1.837,3.181-117.815,69.893-115.971,73.086s115-70.088,116.6-67.319c1.772,3.071-103.965,62.173-102.39,64.9,1.586,2.747,93.487-57.626,95.068-54.887.95,1.646-76.867,46.639-75.569,48.888,1.141,1.975,75.876-46.764,77.157-44.547.861,1.492-54.889,35.779-54.154,37.052.5.868,35.223-21.533,35.742-20.636" fill="none" stroke="#fff" stroke-linecap="round" stroke-linejoin="round" stroke-width="3"/>
    <path id="Path_82" data-name="Path 82" d="M1067.686,194.932c.366.634,29.477-17.831,29.829-17.222.879,1.523-54.559,35.933-53.762,37.312,1.049,1.817,82.875-50.616,84.074-48.54,1.394,2.414-95.289,57.458-93.646,60.3,1.546,2.676,115.391-69.972,116.842-67.459,1.848,3.2-116.014,69.591-114.587,72.061,1.655,2.868,125.4-77.52,127.621-73.682,2.076,3.6-137.4,81.38-135.767,84.213,2.092,3.623,152.5-92.649,154.494-89.2,1.816,3.145-153.95,89.259-151.423,93.637,2.244,3.886,162.622-100.354,165.421-95.506,2.636,4.567-174.363,99.623-171.487,104.606,2.518,4.36,181.644-110.761,184.193-106.344" fill="none" stroke="#fff" stroke-linecap="round" stroke-linejoin="round" stroke-width="3"/>
    <path id="Path_83" data-name="Path 83" d="M435.639,201.067c.421.728,23.381-14.442,23.789-13.735.627,1.086-51.436,33.9-50.645,35.266,1.264,2.189,85.726-52.948,87.222-50.357,1.367,2.369-97.214,59.424-95.976,61.569,1.762,3.052,114.864-71.017,116.9-67.492,1.77,3.067-122.459,72.256-120.674,75.347,2.29,3.968,133.592-81.5,135.483-78.221,2.15,3.724-146.564,86.609-144.749,89.753,2.185,3.783,160.118-97.806,162.44-93.785,2.806,4.86-164.3,94.176-161.568,98.9,2.4,4.148,174.256-107.129,177.08-102.237,3.148,5.451-186.121,107.8-183.925,111.6,2.429,4.206,188.595-116.218,191.771-110.718,3.355,5.812-194.1,112.865-191.812,116.822,3.355,5.811,202.584-122.965,205.184-118.462,2.495,4.322-207.126,116.922-203.588,123.051,2.746,4.756,214.211-129.629,216.789-125.163,2.663,4.613-221.564,126.361-218.533,131.611,3.842,6.654,225.588-137.162,228.584-131.973,3.521,6.1-227.994,128.61-224.262,135.074,2.846,4.93,230.358-141.71,234.131-135.175,2.784,4.823-239.684,136.815-236.466,142.389C386.257,301.1,624.929,146.191,628.9,153.061c3.788,6.559-249.216,140.262-245.137,147.326,3.627,6.283,252.76-153.043,255.84-147.709,3.408,5.9-261.427,147.622-257.6,154.259,3.287,5.694,265.124-162.731,269.307-155.485,4.354,7.541-272.869,154.9-269.288,161.1,3.932,6.811,267.353-162.774,271-156.46,3.492,6.048-268.248,151.682-264.237,158.629C392.73,321.561,658.02,148.1,662.861,156.486,666.043,162,388.416,312.124,392.013,318.355c3.958,6.855,280.89-172.346,285.295-164.715,4.755,8.235-290.328,165.335-286.712,171.6,3.883,6.724,284.215-175.805,289.287-167.02,3.825,6.624-287.916,163.143-284.2,169.579,4.88,8.452,296.064-179.077,299.59-172.969,4.419,7.655-303.959,171.346-299.657,178.8,3.651,6.324,303.131-184.76,307.352-177.45,4.325,7.492-309.076,173.522-304.249,181.883,4,6.93,301.183-182.568,304.941-176.057,5.045,8.737-306.977,172.835-302.407,180.75,4.918,8.518,306.176-188.145,311.1-179.615,3.819,6.614-312.578,174.555-307.737,182.94,4.725,8.184,316.995-192.783,321.224-185.458,4.362,7.554-325.857,181.46-320.391,190.927,4.2,7.282,323.6-198.167,328.507-189.664,4.4,7.624-330.319,184.4-325.181,193.3,4.815,8.339,322.184-195.538,326.308-188.394,4.734,8.2-324.328,181.975-319.606,190.154,4.27,7.4,321.226-197.891,326.609-188.567C745.912,175,417.041,351.2,421.886,359.593c4.806,8.324,327.6-198.847,331.8-191.567,4.092,7.089-331.255,187.2-326.794,194.928,5.325,9.224,323.418-198.306,328.432-189.62,4.928,8.534-329.473,186.035-325.174,193.481,5.618,9.73,332.624-203.486,337.579-194.9,4.153,7.193-340.346,190.607-335.12,199.659,5.686,9.848,336.78-205.609,341.616-197.233,5.03,8.713-345.237,195.427-341.009,202.749,4.871,8.437,344.692-210.554,349.691-201.894,4.239,7.342-347.2,193.51-341.857,202.762,4,6.932,339.327-209.341,345.143-199.268,4.351,7.537-348.857,195.22-343.6,204.319,5.611,9.718,342.942-207.76,347.169-200.438,5.5,9.524-349.061,195.757-344.12,204.313,5.343,9.255,346.89-211.628,351.8-203.115,4.167,7.219-348.579,196.739-344.133,204.439,5.907,10.232,341.667-206.73,345.767-199.628,5.573,9.653-344.269,194.913-340,202.309,5.372,9.3,346.4-209.868,350.677-202.463,5.06,8.764-350.511,195.325-344.812,205.2,5.36,9.284,346.133-213.1,351.876-203.156,4.993,8.648-348.168,194.707-342.737,204.113,4.7,8.132,341.8-209.729,347.162-200.434,4.09,7.083-348.768,195.9-344.006,204.145,4.33,7.5,340.735-207.3,345.317-199.369C827.8,208.008,473,395.265,477.85,403.666c5.621,9.737,343.194-210.395,348.5-201.206,5.8,10.037-341.67,192.195-337.215,199.911C494.9,412.356,830.7,193.631,835.7,202.283c4.755,8.237-346.718,196.524-342.451,203.913,5.772,10,344.583-209.169,349.01-201.5,4.493,7.782-354.182,197.421-348.476,207.3,5.434,9.412,348.68-211.767,353.208-203.924,5.082,8.8-343.983,193.16-339.172,201.492C513.6,419.585,848.3,201.994,853.062,210.24c5.146,8.914-345.125,193.413-340.179,201.979,4.457,7.72,334.716-205.084,339.841-196.207,4.314,7.472-340.412,191.534-335.66,199.766,4.827,8.359,337.2-207.207,342.621-197.812,5.727,9.918-338.507,192.65-334.576,199.459,5.274,9.135,334.662-204.7,339.632-196.087,4.411,7.639-339.645,191.928-335.125,199.755,5.613,9.722,335.129-203.761,339.577-196.055,5.041,8.731-340.286,190.621-335.082,199.636,4.641,8.038,333.27-205.245,338.826-195.621,4.23,7.326-336.353,189.741-332.1,197.111,4.914,8.51,330.494-200.066,334.5-193.124,3.8,6.575-326.265,182.37-321.3,190.962,5.609,9.717,316.805-193.364,321.333-185.522,4.134,7.161-324.541,184.381-320.788,190.881,4.893,8.474,324.637-199.536,329.879-190.456,4.6,7.966-321.175,179.411-315.962,188.441,4.126,7.145,311.144-191.558,316.3-182.618,4.28,7.413-314.311,177.747-310.268,184.749,4.32,7.482,312.657-189.353,316.485-182.723,4.154,7.2-317.337,176.39-311.914,185.783,5.028,8.709,307.07-185.894,310.8-179.439,5.006,8.671-304.212,172.35-300.084,179.5,4.54,7.862,301.665-183.761,305.819-176.565,4.731,8.193-308.491,174.54-304.384,181.652,4.978,8.623,301.279-183.326,305.341-176.289,4.22,7.309-295.42,166.5-291.39,173.484,4.574,7.922,292.468-177.53,296.224-171.025,4.825,8.358-292.147,164.391-287.684,172.123,4.527,7.84,290.406-178.917,295.278-170.479,3.888,6.734-296.288,167.2-292.326,174.065s304.1-186.456,308.811-178.292c3.9,6.754-306.1,171.895-301.534,179.8,3.728,6.456,314.833-191.417,319.01-184.181,4.5,7.789-313.281,176.343-308.63,184.4,4.847,8.4,316.5-193.586,321.2-185.445,4.3,7.453-314.151,178.778-310.336,185.386,4.923,8.526,316.03-192.074,320.193-184.864,4.9,8.49-310.021,172.806-304.972,181.551,4.889,8.467,309.432-190.225,314.444-181.544,4.6,7.975-316.4,177.03-311.32,185.82,4.621,8,318.75-192.682,322.5-186.193,4.337,7.511-317.415,178.2-312.969,185.9,3.762,6.516,315.4-192.253,319.8-184.634,4.936,8.548-311.518,176.108-307.318,183.383,5.482,9.495,313.387-191.835,318.107-183.659,4.463,7.729-310.953,176.6-307.048,183.366,4.789,8.294,308.852-188.682,313.34-180.907,3.635,6.3-302.709,171.876-298.779,178.684,4.521,7.83,307.711-186.425,311.507-179.849,4.062,7.035-298.865,168.448-294.367,176.238,6.087,10.543,489.119-299.8,496.656-286.745,5.829,10.094-496.5,275.814-489.481,287.969,7.255,12.566,487.978-295.2,493.81-285.1,6.717,11.634-485.155,271.585-478.861,282.486,6.134,10.626,481.194-296.166,489.139-282.405,5.929,10.27-478.478,268.138-472.3,278.838,5.871,10.169,479-289.668,484.677-279.828,6.2,10.732-471.525,261.455-464.5,273.625,1.282,2.221,99.965-61.3,101.517-58.612,1.029,1.783-84.855,51.224-83.556,53.472,1.187,2.057,68.095-41.429,69.011-39.843" fill="none" stroke="#fff" stroke-linecap="round" stroke-linejoin="round" stroke-width="3"/>
  </g>
</svg>
