<svg xmlns="http://www.w3.org/2000/svg" xmlns:xlink="http://www.w3.org/1999/xlink" width="340.444" height="155.924" viewBox="0 0 340.444 155.924">
  <defs>
    <clipPath id="clip-path">
      <rect id="Rectangle_81" data-name="Rectangle 81" width="215.051" height="76.018" transform="translate(0 0)" fill="none"/>
    </clipPath>
    <clipPath id="clip-path-2">
      <rect id="Rectangle_81-2" data-name="Rectangle 81" width="163.812" height="57.906" fill="#2b4654"/>
    </clipPath>
    <clipPath id="clip-path-3">
      <rect id="Rectangle_81-3" data-name="Rectangle 81" width="104.538" height="36.953" transform="translate(0 0)" fill="#214837"/>
    </clipPath>
  </defs>
  <g id="fish" transform="translate(-227.568 -3042)">
    <g id="Group_121" data-name="Group 121" transform="translate(309.474 3042)">
      <g id="Group_120" data-name="Group 120" clip-path="url(#clip-path)">
        <path id="Path_103" data-name="Path 103" d="M215.051,41.029C199.889,63.164,184.245,73.083,169.1,75.522,131.988,81.5,106.17,31.278,71,41.5c-9.842,2.86-11.618,7.744-30.586,13.914C20.988,61.735,1.4,63.592.068,59.754-1.441,55.4,22.743,49.21,23.944,34.819,25.065,21.381,6.455,11.586,8.357,8.2c1.474-2.623,14.39.143,59.242,20.054,3.085.671,28.389,5.75,46.158-10.841A44.884,44.884,0,0,0,125.143,0l16.751,8.341a52.009,52.009,0,0,1,24.092-4.135c31.289,2.355,47.744,34.171,49.065,36.823" fill="#658292"/>
      </g>
    </g>
    <g id="Group_122" data-name="Group 122" transform="translate(227.568 3140.018)">
      <g id="Group_120-2" data-name="Group 120" transform="translate(0 0)" clip-path="url(#clip-path-2)">
        <path id="Path_103-2" data-name="Path 103" d="M163.812,31.253c-11.549,16.861-23.466,24.417-35.006,26.275-28.267,4.552-47.933-33.7-74.722-25.915-7.5,2.179-8.85,5.9-23.3,10.6C15.987,47.026,1.064,48.44.052,45.517-1.1,42.2,17.324,37.485,18.239,26.523,19.093,16.287,4.917,8.825,6.366,6.246c1.123-2,10.961.109,45.127,15.276,2.35.511,21.625,4.38,35.16-8.258A34.19,34.19,0,0,0,95.326,0l12.76,6.354A39.617,39.617,0,0,1,126.438,3.2C150.272,5,162.806,29.233,163.812,31.253" transform="translate(0 0)" fill="#2b4654"/>
      </g>
    </g>
    <g id="Group_123" data-name="Group 123" transform="translate(463.474 3132.018)">
      <g id="Group_120-3" data-name="Group 120" transform="translate(0 0)" clip-path="url(#clip-path-3)">
        <path id="Path_103-3" data-name="Path 103" d="M104.538,19.944C97.168,30.7,89.563,35.526,82.2,36.712,64.16,39.617,51.61,15.2,34.515,20.174c-4.784,1.39-5.648,3.764-14.868,6.764C10.2,30.01.679,30.913.033,29.047-.7,26.928,11.056,23.921,11.639,16.926c.545-6.532-8.5-11.294-7.577-12.94.717-1.275,7,.07,28.8,9.748,1.5.326,13.8,2.8,22.438-5.27A21.818,21.818,0,0,0,60.833,0l8.143,4.055a25.282,25.282,0,0,1,11.711-2.01c15.21,1.145,23.209,16.611,23.851,17.9" transform="translate(0 0)" fill="#214837"/>
      </g>
    </g>
  </g>
</svg>
