<svg xmlns="http://www.w3.org/2000/svg" xmlns:xlink="http://www.w3.org/1999/xlink" width="482" height="105" viewBox="0 0 482 105">
  <defs>
    <clipPath id="clip-path">
      <rect id="Rectangle_79" data-name="Rectangle 79" width="222.211" height="40.806" fill="#368863"/>
    </clipPath>
  </defs>
  <g id="Group_118" data-name="Group 118" transform="translate(0 -11.778)">
    <path id="Menubar_002" d="M0,0H482a0,0,0,0,1,0,0V105a0,0,0,0,1,0,0H30A30,30,0,0,1,0,75V0A0,0,0,0,1,0,0Z" transform="translate(0 11.778)" fill="#fff" opacity="0.695"/>
    <g id="Group_117" data-name="Group 117" transform="translate(197.401 43.876)">
      <g id="Group_116" data-name="Group 116" clip-path="url(#clip-path)">
        <path id="Path_90" data-name="Path 90" d="M18.337.708a.725.725,0,0,1,.53.223.725.725,0,0,1,.224.531V6.234a.68.68,0,0,1-.224.516.749.749,0,0,1-.53.209H13.565a.762.762,0,0,0-.754.753V39.923a.764.764,0,0,1-.754.754H7.005a.68.68,0,0,1-.516-.224.748.748,0,0,1-.209-.53V7.713a.762.762,0,0,0-.753-.753H.725A.714.714,0,0,1,0,6.234V1.462A.752.752,0,0,1,.209.931.681.681,0,0,1,.725.708Z" transform="translate(0 -0.289)" fill="#368863"/>
        <path id="Path_91" data-name="Path 91" d="M54.128.708a.726.726,0,0,1,.53.223.725.725,0,0,1,.224.531V39.923a.764.764,0,0,1-.754.754H49.076a.764.764,0,0,1-.754-.754V24.46a.75.75,0,0,0-.209-.531.681.681,0,0,0-.516-.223h-4.41a.762.762,0,0,0-.754.754V39.923a.748.748,0,0,1-.209.53.68.68,0,0,1-.516.224h-5.08a.68.68,0,0,1-.516-.224.748.748,0,0,1-.209-.53V1.462a.75.75,0,0,1,.209-.531.681.681,0,0,1,.516-.223h5.08a.681.681,0,0,1,.516.223.75.75,0,0,1,.209.531V16.729a.679.679,0,0,0,.223.516.75.75,0,0,0,.531.209H47.6a.714.714,0,0,0,.725-.725V1.462a.725.725,0,0,1,.224-.531.725.725,0,0,1,.53-.223Z" transform="translate(-14.662 -0.289)" fill="#368863"/>
        <path id="Path_92" data-name="Path 92" d="M76.02,30.934a.715.715,0,0,1-.726-.725V1.461A.749.749,0,0,1,75.5.931.68.68,0,0,1,76.02.707H93.38a.725.725,0,0,1,.531.224.726.726,0,0,1,.223.53V6.233a.68.68,0,0,1-.223.516.75.75,0,0,1-.531.209h-10.8a.762.762,0,0,0-.754.754v4.075a.762.762,0,0,0,.754.753h7.675a.763.763,0,0,1,.754.754V18.04a.762.762,0,0,1-.754.754H82.579a.763.763,0,0,0-.754.754v4.41a.679.679,0,0,0,.223.516.749.749,0,0,0,.531.209h10.8a.762.762,0,0,1,.754.753v4.773a.68.68,0,0,1-.223.516.75.75,0,0,1-.531.209Zm17.64,3.433a.681.681,0,0,1,.516.223.75.75,0,0,1,.209.531v4.8a.749.749,0,0,1-.209.531.679.679,0,0,1-.516.223H76.02a.679.679,0,0,1-.516-.223.749.749,0,0,1-.209-.531v-4.8a.75.75,0,0,1,.209-.531.681.681,0,0,1,.516-.223Z" transform="translate(-30.749 -0.289)" fill="#368863"/>
        <path id="Path_93" data-name="Path 93" d="M174.358,22.7a3.273,3.273,0,0,1-.446.391.686.686,0,0,0-.251.725l3.266,15.965a.776.776,0,0,1-.154.614.676.676,0,0,1-.572.279h-5.164a.683.683,0,0,1-.725-.586l-2.931-14.57a.683.683,0,0,0-.726-.586h-1.116a.762.762,0,0,0-.753.753V39.923a.748.748,0,0,1-.209.53.68.68,0,0,1-.516.224h-5.08a.679.679,0,0,1-.516-.224.748.748,0,0,1-.209-.53V1.462a.75.75,0,0,1,.209-.531.68.68,0,0,1,.516-.223h8.764A9.636,9.636,0,0,1,174.358,3a8.966,8.966,0,0,1,2.875,7.089v5.471a9.032,9.032,0,0,1-2.875,7.145m-3.684-7.145V10.086a3.431,3.431,0,0,0-.782-2.54,3.228,3.228,0,0,0-2.149-.586h-2.2a.763.763,0,0,0-.753.754V17.957a.678.678,0,0,0,.223.516.748.748,0,0,0,.53.209h2.2a3.275,3.275,0,0,0,2.177-.586,3.337,3.337,0,0,0,.754-2.54" transform="translate(-64.628 -0.289)" fill="#368863"/>
        <path id="Path_94" data-name="Path 94" d="M196.957,30.934a.715.715,0,0,1-.726-.725V1.461a.749.749,0,0,1,.209-.53.68.68,0,0,1,.516-.224h17.36a.725.725,0,0,1,.531.224.725.725,0,0,1,.223.53V6.233a.68.68,0,0,1-.223.516.75.75,0,0,1-.531.209h-10.8a.762.762,0,0,0-.754.754v4.075a.762.762,0,0,0,.754.753h7.675a.763.763,0,0,1,.754.754V18.04a.762.762,0,0,1-.754.754h-7.675a.763.763,0,0,0-.754.754v4.41a.679.679,0,0,0,.223.516.749.749,0,0,0,.531.209h10.8a.762.762,0,0,1,.754.753v4.773a.68.68,0,0,1-.223.516.75.75,0,0,1-.531.209Zm17.64,3.433a.681.681,0,0,1,.516.223.75.75,0,0,1,.209.531v4.8a.749.749,0,0,1-.209.531.679.679,0,0,1-.516.223h-17.64a.679.679,0,0,1-.516-.223.749.749,0,0,1-.209-.531v-4.8a.75.75,0,0,1,.209-.531.681.681,0,0,1,.516-.223Z" transform="translate(-80.137 -0.289)" fill="#368863"/>
        <path id="Path_95" data-name="Path 95" d="M251.75,21.082a7.992,7.992,0,0,1,2.4,6.28v4.158a9.434,9.434,0,0,1-.725,3.963,7.171,7.171,0,0,1-2.177,3.07,9.6,9.6,0,0,1-6.587,2.121h-9.49a.679.679,0,0,1-.516-.223.749.749,0,0,1-.209-.531V1.461a.75.75,0,0,1,.209-.53.682.682,0,0,1,.516-.224H243.1a15.587,15.587,0,0,1,4.117.544,8.108,8.108,0,0,1,3.2,1.577,7.169,7.169,0,0,1,2.177,3.07,9.958,9.958,0,0,1,.725,4.019v4.968a7.877,7.877,0,0,1-1.619,5.191.65.65,0,0,0,.056,1.005M240.976,7.713v9.545a.678.678,0,0,0,.223.516.749.749,0,0,0,.531.209H243.1A4.8,4.8,0,0,0,246,17.4a3.443,3.443,0,0,0,.782-2.512V9.918a3.238,3.238,0,0,0-.726-2.429q-.558-.53-2.959-.53H241.73a.762.762,0,0,0-.754.754m6.643,23.808V27.362a3.318,3.318,0,0,0-.782-2.54,3.278,3.278,0,0,0-2.177-.586h-2.93a.762.762,0,0,0-.754.754v8.68a.762.762,0,0,0,.754.753h2.93a3.5,3.5,0,0,0,2.233-.53,3.088,3.088,0,0,0,.726-2.372" transform="translate(-95.743 -0.289)" fill="#368863"/>
        <path id="Path_96" data-name="Path 96" d="M274.469,30.934a.715.715,0,0,1-.726-.725V1.461a.749.749,0,0,1,.209-.53.68.68,0,0,1,.516-.224h17.36a.725.725,0,0,1,.531.224.725.725,0,0,1,.223.53V6.233a.68.68,0,0,1-.223.516.75.75,0,0,1-.531.209h-10.8a.762.762,0,0,0-.754.754v4.075a.762.762,0,0,0,.754.753H288.7a.763.763,0,0,1,.754.754V18.04a.762.762,0,0,1-.754.754h-7.675a.763.763,0,0,0-.754.754v4.41a.679.679,0,0,0,.223.516.749.749,0,0,0,.531.209h10.8a.762.762,0,0,1,.754.753v4.773a.68.68,0,0,1-.223.516.75.75,0,0,1-.531.209Zm17.64,3.433a.681.681,0,0,1,.516.223.75.75,0,0,1,.209.531v4.8a.749.749,0,0,1-.209.531.679.679,0,0,1-.516.223h-17.64a.679.679,0,0,1-.516-.223.749.749,0,0,1-.209-.531v-4.8a.75.75,0,0,1,.209-.531.681.681,0,0,1,.516-.223Z" transform="translate(-111.792 -0.289)" fill="#368863"/>
        <path id="Path_97" data-name="Path 97" d="M328.592,34.424a.681.681,0,0,1,.516.223.75.75,0,0,1,.209.531v4.745a.748.748,0,0,1-.209.53.68.68,0,0,1-.516.224H312.683a.68.68,0,0,1-.516-.224.748.748,0,0,1-.209-.53V1.462a.75.75,0,0,1,.209-.531.681.681,0,0,1,.516-.223h5.08a.681.681,0,0,1,.516.223.75.75,0,0,1,.209.531V33.671a.762.762,0,0,0,.754.754Z" transform="translate(-127.398 -0.289)" fill="#368863"/>
        <path id="Path_98" data-name="Path 98" d="M356.72,15.77a.746.746,0,0,1-.53-.209.677.677,0,0,1-.224-.516V9.378a3.2,3.2,0,0,0-.782-2.54,4.287,4.287,0,0,0-4.326,0,3.318,3.318,0,0,0-.782,2.54V11.75a5.121,5.121,0,0,0,2.01,4.075,17.18,17.18,0,0,0,2.148,1.256,24.054,24.054,0,0,1,4.047,2.484,11.1,11.1,0,0,1,4.215,8.792v3.1a9.151,9.151,0,0,1-2.846,7.117,10.957,10.957,0,0,1-13.258,0,9.157,9.157,0,0,1-2.875-7.117V24.924a.764.764,0,0,1,.754-.754h5.052a.763.763,0,0,1,.754.754v6.531a3.273,3.273,0,0,0,.782,2.512,4.287,4.287,0,0,0,4.326,0,3.107,3.107,0,0,0,.782-2.512v-3.1a5.338,5.338,0,0,0-2.01-4.131,20.83,20.83,0,0,0-2.317-1.368,24.36,24.36,0,0,1-3.908-2.372,11.916,11.916,0,0,1-3.126-3.963,10.64,10.64,0,0,1-1.089-4.773V9.378a9.192,9.192,0,0,1,2.875-7.145,10.957,10.957,0,0,1,13.258,0A9.186,9.186,0,0,1,362.5,9.378v5.666a.715.715,0,0,1-.726.726Z" transform="translate(-140.287 0)" fill="#368863"/>
        <path id="Path_99" data-name="Path 99" d="M127.845,34.424a.763.763,0,0,0,.754-.754V24.655a.68.68,0,0,0-.224-.516.748.748,0,0,0-.53-.209h-5.471a.682.682,0,0,1-.516-.223.752.752,0,0,1-.209-.53V18.4a.714.714,0,0,1,.725-.725h5.471a.764.764,0,0,0,.754-.754V7.713a.763.763,0,0,0-.754-.753h-8.6a.763.763,0,0,1-.753-.754V1.462a.726.726,0,0,1,.223-.531.724.724,0,0,1,.53-.223H134.4a.677.677,0,0,1,.516.223.749.749,0,0,1,.209.531V39.923a.749.749,0,0,1-.209.53.677.677,0,0,1-.516.224H119.248a.763.763,0,0,1-.753-.754V35.15a.68.68,0,0,1,.223-.516.75.75,0,0,1,.53-.209Z" transform="translate(-48.391 -0.289)" fill="#368863"/>
        <path id="Path_100" data-name="Path 100" d="M196.957,30.934a.715.715,0,0,1-.726-.725V1.461a.749.749,0,0,1,.209-.53.68.68,0,0,1,.516-.224h17.36a.725.725,0,0,1,.531.224.725.725,0,0,1,.223.53V6.233a.68.68,0,0,1-.223.516.75.75,0,0,1-.531.209h-10.8a.762.762,0,0,0-.754.754v4.075a.762.762,0,0,0,.754.753h7.675a.763.763,0,0,1,.754.754V18.04a.762.762,0,0,1-.754.754h-7.675a.763.763,0,0,0-.754.754v4.41a.679.679,0,0,0,.223.516.749.749,0,0,0,.531.209h10.8a.762.762,0,0,1,.754.753v4.773a.68.68,0,0,1-.223.516.75.75,0,0,1-.531.209Zm17.64,3.433a.681.681,0,0,1,.516.223.75.75,0,0,1,.209.531v4.8a.749.749,0,0,1-.209.531.679.679,0,0,1-.516.223h-17.64a.679.679,0,0,1-.516-.223.749.749,0,0,1-.209-.531v-4.8a.75.75,0,0,1,.209-.531.681.681,0,0,1,.516-.223Z" transform="translate(-80.137 -0.289)" fill="#368863"/>
        <path id="Path_101" data-name="Path 101" d="M251.75,21.082a7.992,7.992,0,0,1,2.4,6.28v4.158a9.434,9.434,0,0,1-.725,3.963,7.171,7.171,0,0,1-2.177,3.07,9.6,9.6,0,0,1-6.587,2.121h-9.49a.679.679,0,0,1-.516-.223.749.749,0,0,1-.209-.531V1.461a.75.75,0,0,1,.209-.53.682.682,0,0,1,.516-.224H243.1a15.587,15.587,0,0,1,4.117.544,8.108,8.108,0,0,1,3.2,1.577,7.169,7.169,0,0,1,2.177,3.07,9.958,9.958,0,0,1,.725,4.019v4.968a7.877,7.877,0,0,1-1.619,5.191.65.65,0,0,0,.056,1.005M240.976,7.713v9.545a.678.678,0,0,0,.223.516.749.749,0,0,0,.531.209H243.1A4.8,4.8,0,0,0,246,17.4a3.443,3.443,0,0,0,.782-2.512V9.918a3.238,3.238,0,0,0-.726-2.429q-.558-.53-2.959-.53H241.73a.762.762,0,0,0-.754.754m6.643,23.808V27.362a3.318,3.318,0,0,0-.782-2.54,3.278,3.278,0,0,0-2.177-.586h-2.93a.762.762,0,0,0-.754.754v8.68a.762.762,0,0,0,.754.753h2.93a3.5,3.5,0,0,0,2.233-.53,3.088,3.088,0,0,0,.726-2.372" transform="translate(-95.743 -0.289)" fill="#368863"/>
        <path id="Path_102" data-name="Path 102" d="M274.469,30.934a.715.715,0,0,1-.726-.725V1.461a.749.749,0,0,1,.209-.53.68.68,0,0,1,.516-.224h17.36a.725.725,0,0,1,.531.224.725.725,0,0,1,.223.53V6.233a.68.68,0,0,1-.223.516.75.75,0,0,1-.531.209h-10.8a.762.762,0,0,0-.754.754v4.075a.762.762,0,0,0,.754.753H288.7a.763.763,0,0,1,.754.754V18.04a.762.762,0,0,1-.754.754h-7.675a.763.763,0,0,0-.754.754v4.41a.679.679,0,0,0,.223.516.749.749,0,0,0,.531.209h10.8a.762.762,0,0,1,.754.753v4.773a.68.68,0,0,1-.223.516.75.75,0,0,1-.531.209Zm17.64,3.433a.681.681,0,0,1,.516.223.75.75,0,0,1,.209.531v4.8a.749.749,0,0,1-.209.531.679.679,0,0,1-.516.223h-17.64a.679.679,0,0,1-.516-.223.749.749,0,0,1-.209-.531v-4.8a.75.75,0,0,1,.209-.531.681.681,0,0,1,.516-.223Z" transform="translate(-111.792 -0.289)" fill="#368863"/>
      </g>
    </g>
  </g>
</svg>
