<svg id="hills2" xmlns="http://www.w3.org/2000/svg" xmlns:xlink="http://www.w3.org/1999/xlink" width="1957.19" height="599.665" viewBox="0 0 1957.19 599.665">
  <defs>
    <linearGradient id="linear-gradient" x1="0.5" x2="0.5" y2="1" gradientUnits="objectBoundingBox">
      <stop offset="0" stop-color="#3c765c"/>
      <stop offset="1" stop-color="#122b1f"/>
    </linearGradient>
    <clipPath id="clip-path">
      <path id="Path_86" data-name="Path 86" d="M1838.834,0a52.609,52.609,0,0,0-8.244.657C1792.01,6.8,1767.6,52.241,1748.53,93.1q-30.735,65.863-61.47,131.714-46.59,99.807-93.17,199.613c-7.42,15.905-15.12,32.16-24.27,46.716-7.16,11.411-15.21,21.786-24.72,30.112-1.96,1.735-3.98,3.362-6.07,4.9-26.21,19.315-58.94,20.508-89.44,16q-7.755-1.139-15.45-2.723c-40.26-8.266-78.92-25.256-115.211-48.295-33.319-21.147-64.628-47.4-93.329-76.683-36.84-37.595-69.81-80.094-100.72-124.834-22.74-32.907-44.37-67.032-65.61-101.3-29.49-47.584-63.34-99.505-111.98-109.109-39.67-7.844-78.78,15.062-113.27,39.956-81.41,58.778-155.26,132.7-218.18,218.314q-8.8,11.965-17.3,24.22c-31.31,45.15-62.78,92.734-99.68,129.436a294.555,294.555,0,0,1-25.86,23.015c-19.38,15.219-40.35,27.124-63.52,34.124-1.17-1.35-2.32-2.7-3.47-4.061a583.9,583.9,0,0,1-39.61-53.078c-34.13-51.223-62.6-108.265-91.04-164.549C235.58,228.249,194.57,149.18,137.72,88.173q-3.66-3.94-7.43-7.748C92.66,42.264,47.52,12.779,0,.874V599.665q182.67-7.284,365.4-12.363h.01q66.99-1.862,133.98-3.422h.01q393.735-9.2,787.57-8.1c1.91,0,3.82.012,5.74.012q33.375.09,66.75.277,125.625.651,251.25,2.35h.01q169.17,2.277,338.32,6.459c1.27.036,2.54.06,3.81.1-.94-37.486,1.271-76.238,4.34-115.411a61.621,61.621,0,0,0-8.15,1.3V133.7q-3.165-9.507-6.95-18.8c-2.95-7.254-5.93-14.532-9.02-21.737-8.99-20.906-18.98-41.149-32.49-58.007C1884.364,14.916,1862,.023,1838.948,0Z" fill="url(#linear-gradient)"/>
    </clipPath>
  </defs>
  <g id="Group_91" data-name="Group 91" clip-path="url(#clip-path)">
    <rect id="Rectangle_61" data-name="Rectangle 61" width="1957.19" height="599.665" fill="url(#linear-gradient)"/>
  </g>
</svg>
