<svg id="hills1" xmlns="http://www.w3.org/2000/svg" xmlns:xlink="http://www.w3.org/1999/xlink" width="1698.391" height="615.409" viewBox="0 0 1698.391 615.409">
  <defs>
    <linearGradient id="linear-gradient" x1="0.5" x2="0.5" y2="1" gradientUnits="objectBoundingBox">
      <stop offset="0" stop-color="#1d4533"/>
      <stop offset="1" stop-color="#03120b"/>
    </linearGradient>
    <clipPath id="clip-path">
      <path id="Path_84" data-name="Path 84" d="M140.385,0C87.821.126,36.131,21.593,0,70.6,39.683,206.431,87.939,329.075,159.635,439.959c44.973,69.555,100.632,136.19,169.5,148.151,61.2,10.629,122.86-24.982,169.781-77.695s91.417-116.145,125.442-183.824c-75.915-26.608-140.836-89.943-203.212-152.713S295.054,46.285,219.984,15.817A211.447,211.447,0,0,0,141.285,0Z" fill="url(#linear-gradient)"/>
    </clipPath>
    <clipPath id="clip-path-2">
      <path id="Path_85" data-name="Path 85" d="M1351.591,74.157c-124.839,2.588-248.481,64.642-342.839,172.066,40.365,126.644,114.219,236.144,208.042,296.61s208.533,67.585,303,8.88,173.216-182.669,178.594-319.787c-94.773-101.2-216.528-157.847-338.636-157.853-2.728,0-5.436.028-8.164.084" transform="translate(-1008.752 -74.073)" fill="url(#linear-gradient)"/>
    </clipPath>
  </defs>
  <g id="Group_88" data-name="Group 88">
    <g id="Group_87" data-name="Group 87" clip-path="url(#clip-path)">
      <rect id="Rectangle_59" data-name="Rectangle 59" width="624.356" height="598.739" fill="url(#linear-gradient)"/>
    </g>
  </g>
  <g id="Group_90" data-name="Group 90" transform="translate(1008.752 97.319)">
    <g id="Group_89" data-name="Group 89" clip-path="url(#clip-path-2)">
      <rect id="Rectangle_60" data-name="Rectangle 60" width="689.639" height="536.344" fill="url(#linear-gradient)"/>
    </g>
  </g>
</svg>
